<svg width="234" height="186" viewBox="0 0 234 186" fill="none" xmlns="http://www.w3.org/2000/svg">
<path fill-rule="evenodd" clip-rule="evenodd" d="M114.421 8.16878C112.253 8.56365 110.188 9.38236 108.566 10.4895C107.012 11.5498 104.552 13.6977 104.892 13.6977C104.994 13.6977 104.826 13.9646 104.519 14.2904C103.298 15.5836 102.001 19.0431 101.746 21.6828C101.583 23.3758 101.884 25.4811 102.269 25.3372C102.391 25.2919 102.996 26.2995 103.612 27.5763C105.718 31.933 109.093 34.253 114.863 35.3101C117.949 35.8754 122.605 34.9945 125.631 33.273C128.062 31.8898 130.924 28.4285 131.336 26.3725C131.445 25.8288 131.656 25.5516 131.961 25.5516C133.287 25.5516 132.872 19.8499 131.3 16.4636C129.791 13.2133 126.022 9.98902 122.242 8.71354C120.323 8.06605 116.461 7.79709 114.421 8.16878ZM118.134 9.07284C118.223 9.42688 118.218 9.84177 118.123 9.99481C118.016 10.1687 118.279 10.2754 118.824 10.2788C120.048 10.2867 122.964 11.3622 124.341 12.3142C126.279 13.655 128.09 15.651 129.023 17.4752C131.752 22.815 129.093 30.1254 123.521 32.5982C122.723 32.9522 121.655 33.4293 121.147 33.6584C119.851 34.2432 114.782 34.2519 113.498 33.6711C112.99 33.4416 111.946 32.9967 111.177 32.6827C109.648 32.0576 109.28 31.7913 107.511 30.0298C106.159 28.6837 105.524 27.56 104.787 25.2126C104.135 23.1363 104.134 21.6667 104.781 19.4047C105.444 17.0898 106.4 15.4813 108.07 13.8684C109.645 12.348 112.924 10.665 114.818 10.4047C115.851 10.263 116.136 10.1202 116.136 9.74325C116.136 8.81153 116.449 8.4293 117.214 8.4293C117.798 8.4293 118.009 8.57708 118.134 9.07284ZM102.156 11.4586C102.156 11.73 102.329 11.859 102.618 11.8037C103.174 11.6968 103.139 11.2292 102.566 11.1101C102.327 11.0604 102.156 11.2055 102.156 11.4586ZM132.491 11.5864C132.181 11.78 132.166 11.8999 132.421 12.1546C132.805 12.5381 133.099 12.3229 132.974 11.7497C132.91 11.4584 132.772 11.4115 132.491 11.5864ZM99.5185 12.2489C99.5185 12.4662 99.6371 12.644 99.7823 12.644C99.9272 12.644 100.046 12.4662 100.046 12.2489C100.046 12.0316 99.9272 11.8538 99.7823 11.8538C99.6371 11.8538 99.5185 12.0316 99.5185 12.2489ZM135.127 12.5123C135.127 12.7297 135.245 12.9075 135.39 12.9075C135.536 12.9075 135.654 12.7297 135.654 12.5123C135.654 12.295 135.536 12.1172 135.39 12.1172C135.245 12.1172 135.127 12.295 135.127 12.5123ZM96.617 13.0392C96.617 13.2565 96.7952 13.4343 97.0127 13.4343C97.2302 13.4343 97.4084 13.2565 97.4084 13.0392C97.4084 12.8219 97.2302 12.644 97.0127 12.644C96.7952 12.644 96.617 12.8219 96.617 13.0392ZM137.764 13.4343C137.764 13.7738 137.898 13.9606 138.094 13.8953C138.275 13.835 138.424 13.6274 138.424 13.4343C138.424 13.2412 138.275 13.0336 138.094 12.9733C137.898 12.908 137.764 13.0948 137.764 13.4343ZM115.093 13.5918C112.86 14.1911 111.492 14.9895 109.972 16.5814C108.148 18.4907 107.386 20.4421 107.383 23.2054C107.38 25.7724 108.079 27.4696 109.799 29.0762C113.345 32.3893 118.662 33.0402 122.649 30.6494C124.642 29.454 125.403 28.709 126.325 27.0471C127.002 25.8272 127.082 25.4318 127.082 23.2989C127.082 21.0803 127.014 20.7774 126.106 18.9427C124.831 16.3662 122.993 14.8188 120.055 13.8492C117.726 13.0803 117.116 13.0487 115.093 13.5918ZM93.9796 13.8139C93.9796 14.355 94.5256 14.6207 94.7827 14.2051C94.902 14.0122 94.9413 13.7601 94.8696 13.6445C94.648 13.2862 93.9796 13.4135 93.9796 13.8139ZM140.402 14.3563C140.402 14.5736 140.58 14.7514 140.798 14.7514C141.015 14.7514 141.193 14.5736 141.193 14.3563C141.193 14.1389 141.015 13.9611 140.798 13.9611C140.58 13.9611 140.402 14.1389 140.402 14.3563ZM91.5248 14.6563C91.3143 14.8668 91.5524 15.2783 91.885 15.2783C92.0217 15.2783 92.1333 15.1004 92.1333 14.8831C92.1333 14.4759 91.8219 14.3597 91.5248 14.6563ZM142.952 14.9271C142.63 15.2479 142.77 15.8051 143.172 15.8051C143.391 15.8051 143.567 15.5709 143.567 15.2783C143.567 14.7535 143.286 14.5931 142.952 14.9271ZM88.9679 16.0685C88.9679 16.2134 89.0865 16.3319 89.2317 16.3319C89.3766 16.3319 89.4955 16.2134 89.4955 16.0685C89.4955 15.9236 89.3766 15.8051 89.2317 15.8051C89.0865 15.8051 88.9679 15.9236 88.9679 16.0685ZM145.413 16.4636C145.413 16.681 145.532 16.8588 145.677 16.8588C145.822 16.8588 145.941 16.681 145.941 16.4636C145.941 16.2463 145.822 16.0685 145.677 16.0685C145.532 16.0685 145.413 16.2463 145.413 16.4636ZM86.3809 17.4054C86.4329 17.5611 86.5883 17.6886 86.7259 17.6886C86.8635 17.6886 87.0189 17.5611 87.0709 17.4054C87.1229 17.2497 86.9678 17.1222 86.7259 17.1222C86.484 17.1222 86.3289 17.2497 86.3809 17.4054ZM120.092 20.0109V22.6361L122.927 22.7109L125.763 22.7858V25.0248V27.2639L122.927 27.3387L120.092 27.4135V28.8534V30.2932H117.191H114.289V28.8536V27.414L111.586 27.339L108.882 27.2639L108.806 24.959L108.73 22.654H111.349C113.495 22.654 113.998 22.5787 114.129 22.2373C114.217 22.0081 114.289 20.8227 114.289 19.6031V17.3856H117.191H120.092V20.0109ZM147.787 17.649C147.787 17.7939 147.906 17.9125 148.051 17.9125C148.196 17.9125 148.315 17.7939 148.315 17.649C148.315 17.5041 148.196 17.3856 148.051 17.3856C147.906 17.3856 147.787 17.5041 147.787 17.649ZM154.909 17.8656C152.711 18.5979 151.723 19.1885 150.468 20.5193C149.033 22.0418 148.421 23.2193 147.892 25.4803C146.86 29.8939 148.424 34.1927 151.851 36.3632C157.369 39.8579 165.345 37.0658 167.441 30.9062C168.764 27.0202 167.521 22.6509 164.292 19.837C161.86 17.718 157.869 16.8796 154.909 17.8656ZM83.9566 18.5792C83.9566 18.792 84.1345 18.9661 84.352 18.9661C84.5698 18.9661 84.7477 18.8602 84.7477 18.7309C84.7477 18.6016 84.5698 18.4275 84.352 18.3439C84.111 18.2517 83.9566 18.3437 83.9566 18.5792ZM81.5826 19.8881C81.5826 20.1054 81.7012 20.2833 81.8463 20.2833C81.9914 20.2833 82.1101 20.1054 82.1101 19.8881C82.1101 19.6708 81.9914 19.493 81.8463 19.493C81.7012 19.493 81.5826 19.6708 81.5826 19.8881ZM96.617 20.524C93.8119 21.6317 90.7553 23.0552 89.7593 23.718C89.3966 23.9593 88.0316 24.8547 86.7259 25.7079C85.4202 26.5608 84.0095 27.5563 83.591 27.9198C82.0291 29.2759 81.2927 30.1081 81.5003 30.2817C81.7466 30.4874 84.7696 31.6709 86.7589 32.3405C87.9159 32.7299 88.4013 33.1361 90.1218 35.1526C91.228 36.4489 92.1333 37.64 92.1333 37.7997C92.1333 37.9593 92.5353 38.2354 93.0271 38.4129C94.055 38.7841 94.6309 39.8662 94.4514 41.0891C94.3452 41.8133 94.3728 41.8482 94.7713 41.488C95.343 40.9712 95.6506 40.9902 96.1807 41.5752C96.7863 42.2436 96.7286 42.5889 95.9232 43.1159C95.2482 43.5575 95.2146 43.5521 94.6559 42.9028C94.1083 42.2677 94.0427 42.2547 93.257 42.626C92.1792 43.1358 90.9645 42.6745 90.3722 41.5308C90.0222 40.8548 90.0076 40.5796 90.2819 39.823C90.6408 38.8312 90.4011 38.4751 89.3636 38.4593C88.9349 38.4527 88.909 38.4053 89.2244 38.2059C89.5498 38.0004 89.5285 37.9295 89.0925 37.7683C88.8062 37.6624 88.4898 37.452 88.3886 37.3008C88.2878 37.1496 88.1134 37.1177 88.0009 37.2299C87.8883 37.3424 87.9206 37.5168 88.0722 37.6174C88.2241 37.7183 88.5713 38.1837 88.8439 38.6521L89.3395 39.5032L88.5605 40.317C88.1318 40.7641 87.3924 41.3707 86.9174 41.6643C86.4424 41.9579 85.8898 42.5125 85.6897 42.8971C85.1884 43.8588 84.3526 44.7814 83.9819 44.7814C83.8126 44.7814 83.4442 45.317 83.1633 45.9711C82.8823 46.6259 82.3453 47.468 81.97 47.8425C81.595 48.2176 81.0128 49.1453 80.6765 49.905C80.3402 50.6644 79.8789 51.3569 79.6513 51.4441C79.4239 51.5313 79.1533 52.0535 79.0499 52.6043C78.8637 53.598 78.4693 54.5784 77.7461 55.8451C77.5393 56.2072 77.3684 56.6926 77.3663 56.9231C77.3642 57.1543 77.1405 57.9869 76.8694 58.7742C76.5982 59.5609 76.1066 61.5058 75.7768 63.0956C74.9953 66.8646 74.9359 66.961 74.2019 65.6566C73.7403 64.836 73.26 64.4444 72.0604 63.9098C71.21 63.5309 70.2222 63.2208 69.8654 63.2208C69.5088 63.2208 69.1479 63.1095 69.0635 62.9732C68.6758 62.3467 70.75 55.0001 71.6956 53.6519C71.9108 53.3446 72.087 52.8925 72.087 52.6468C72.087 52.1239 72.8166 50.6971 73.4586 49.964C73.7052 49.6821 73.9827 49.1076 74.0753 48.6868C74.1679 48.2661 74.6247 47.423 75.0905 46.8126C75.5563 46.2026 76.2284 45.1756 76.584 44.5303C76.9395 43.8851 77.6757 42.9209 78.2196 42.3879C78.7637 41.8549 79.2087 41.234 79.2087 41.0083C79.2087 40.7825 79.8021 40.0983 80.5275 39.4874C81.2528 38.8766 81.8463 38.1642 81.8463 37.9042C81.8463 37.6445 82.0141 37.3371 82.2193 37.2212C82.4245 37.1053 83.1097 36.5252 83.7422 35.9323C85.0143 34.7395 85.4189 34.7329 86.3277 35.8909C86.6403 36.2895 87.036 36.6116 87.2069 36.6069C87.3775 36.6024 87.2798 36.4109 86.9897 36.1815C86.6241 35.8928 86.5636 35.7268 86.7919 35.6412C87.3553 35.4302 87.1574 35.0999 86.2642 34.7611C85.7931 34.5822 84.8136 34.209 84.0882 33.9319C81.8595 33.08 79.6323 32.4048 79.0444 32.4027C78.0534 32.399 74.3689 36.6067 70.8566 41.7521C69.1337 44.276 66.5815 49.1799 65.5781 51.8937C65.0693 53.2701 64.2158 56.3521 63.6812 58.7428L62.7094 63.0892H59.1558H55.6018L55.5219 61.9919C55.4551 61.078 55.5321 60.8659 55.9827 60.7232C56.7106 60.4924 56.9831 59.3506 56.4398 58.8084C55.9212 58.2903 54.4502 58.2628 54.1318 58.7647C53.7132 59.4251 53.8705 60.2156 54.5467 60.8501C54.9466 61.2252 55.2062 61.7598 55.2062 62.2084C55.2062 62.8264 54.9991 63.0537 53.9533 63.5855C52.3375 64.4067 51.5274 65.2913 51.2339 66.5539C50.8999 67.9912 50.9321 76.5829 51.2761 77.8198C51.5979 78.9778 52.8125 80.3431 53.5207 80.3431C53.914 80.3431 53.8815 80.2312 53.3094 79.6189C52.0932 78.3164 52.041 78.0148 52.041 72.285C52.041 66.8393 52.0426 66.8247 52.7141 65.9454C53.9728 64.2973 54.1078 64.2745 62.6709 64.2745C67.4828 64.2745 70.7321 64.3813 71.2327 64.5554C71.6764 64.7101 72.3471 65.2796 72.7227 65.8208L73.4059 66.8053V72.4835V78.1616L72.2981 79.4185C71.3113 80.5381 71.2607 80.6557 71.8365 80.4928C73.0704 80.1437 73.6575 79.7302 74.3639 78.7124C74.7545 78.1496 75.1749 77.7897 75.2981 77.9127C75.5519 78.1664 76.571 81.7005 76.571 82.327C76.571 82.802 71.8953 85.0849 70.922 85.0849C70.2816 85.0849 69.9041 84.4616 69.5657 82.8458C69.1817 81.0109 69.4283 81.1336 66.1167 81.1336C63.3517 81.1336 63.0956 81.1741 63.2201 81.5946C63.2955 81.8479 63.6036 83.063 63.9054 84.2945C64.2071 85.526 64.7011 87.2128 65.0037 88.0429C65.3059 88.8733 65.4819 89.7386 65.3946 89.9659C65.3073 90.1933 64.5518 90.6829 63.7157 91.0538C62.2742 91.6937 62.1574 91.7067 61.4492 91.3043C60.4445 90.7336 59.5366 90.77 58.8989 91.4067C58.2418 92.0631 58.2252 92.7736 58.8537 93.3418C59.6028 94.0191 60.8755 93.9002 61.4603 93.0986C61.8762 92.5285 65.1157 90.8801 65.8208 90.8801C65.9369 90.8801 66.1753 91.206 66.3504 91.6046C66.5258 92.0028 66.7308 92.3881 66.8065 92.4607C66.8819 92.533 67.3282 93.3628 67.7983 94.3045C69.5056 97.7251 72.6101 102.573 73.4059 103.062C73.6852 103.234 74.5572 102.955 76.3732 102.113C77.7875 101.457 78.9449 100.822 78.9449 100.701C78.9449 100.58 78.4717 99.832 77.8933 99.039C74.8415 94.8558 73.0835 91.8662 73.3175 91.2574C73.3929 91.0608 73.7108 90.8198 74.0236 90.7219C74.3367 90.6239 75.5671 90.0757 76.7578 89.5043C77.9487 88.9323 79.0488 88.5423 79.2026 88.6374C79.3566 88.7322 79.7924 89.4238 80.1709 90.1743C81.6836 93.1716 85.151 97.8284 87.906 100.562C93.0807 105.696 97.9998 108.886 103.475 110.657C104.708 111.056 105.746 111.541 105.781 111.734C105.816 111.927 105.38 112.37 104.811 112.719C103.465 113.544 102.659 114.659 102.488 115.934C102.328 117.123 101.995 117.204 99.8901 116.566C99.178 116.351 98.5752 116.173 98.5508 116.171C98.5261 116.17 98.6295 116.613 98.7801 117.156C99.0359 118.078 98.9291 120.657 98.5683 122.268C98.4177 122.939 98.4915 122.994 100.35 123.586L102.288 124.203L102.466 126.004C102.709 128.459 103.879 130.222 106.245 131.698C107.574 132.528 109.888 132.764 116.514 132.75C126.311 132.728 127.822 132.45 129.927 130.284C131.356 128.813 131.698 128.025 131.909 125.72L132.093 123.707L135.151 122.622C140.574 120.697 146.779 117.269 149.961 114.441C150.359 114.087 150.774 113.789 150.884 113.779C151.157 113.752 152.631 111.962 152.494 111.824C152.432 111.763 150.95 111.549 149.198 111.347L146.013 110.982L145.034 109.898C144.494 109.303 143.709 108.366 143.288 107.816C142.866 107.267 142.257 106.489 141.934 106.088L141.347 105.359L142.016 104.69L142.685 104.022L144.511 106.078C145.515 107.209 146.476 108.282 146.647 108.463C146.819 108.645 147.265 108.793 147.639 108.793C148.28 108.793 153.695 109.487 158.074 110.13C160.367 110.467 163.602 111.311 163.956 111.664C164.503 112.211 163.768 112.481 161.734 112.481C159.663 112.481 159.625 112.492 159.809 113.073C160.348 114.774 162.023 115.96 163.867 115.946C165.012 115.936 165.374 115.794 166.413 114.944C167.767 113.836 168.097 113.192 168.097 111.66C168.097 110.44 167.628 109.422 166.694 108.617C165.598 107.67 165.177 107.537 161.891 107.088C160.154 106.851 157.038 106.287 154.966 105.834L151.199 105.01L149.946 106.243C149.257 106.921 148.501 107.476 148.268 107.476C147.886 107.476 144.919 104.267 144.356 103.246C144.185 102.935 144.717 102.234 146.559 100.348C147.895 98.98 149.222 97.5545 149.509 97.1797C152.625 93.1043 153.487 91.7929 154.726 89.2367C155.517 87.6053 156.313 85.7961 156.494 85.2165C156.676 84.6369 156.91 84.0443 157.015 83.8994C157.121 83.7545 157.347 83.0433 157.519 82.3188C157.691 81.5946 158.014 80.3577 158.238 79.5707L158.644 78.1391L159.326 79.0098C160.113 80.013 161.354 80.6066 162.664 80.6066C163.465 80.6066 163.588 80.5172 163.662 79.8821C163.74 79.201 163.831 79.1531 165.196 79.0805C166.468 79.0127 166.687 78.9175 166.974 78.3094C167.153 77.9279 167.256 77.5719 167.203 77.518C166.994 77.3093 163.37 77.1197 162.719 77.283C162.34 77.3778 162.03 77.627 162.03 77.8366C162.03 78.0459 161.809 78.3354 161.539 78.4797C161.156 78.6848 160.925 78.6106 160.484 78.1429C159.943 77.5674 159.921 77.3109 159.929 71.7653C159.937 65.6696 159.95 65.6065 161.232 64.7234C161.814 64.3227 162.821 64.2745 170.626 64.2745C182.145 64.2745 181.335 63.6929 181.296 71.9283C181.282 74.9605 181.208 77.6039 181.132 77.8027C180.975 78.2114 179.71 78.8576 179.493 78.6407C179.415 78.5627 179.331 78.2323 179.306 77.9067C179.263 77.3271 179.193 77.3144 176.186 77.335C174.495 77.3464 173.052 77.4146 172.981 77.4859C172.909 77.5573 172.998 77.9286 173.177 78.3113C173.49 78.9778 173.603 79.0098 175.878 79.0821C178.112 79.1534 178.257 79.1924 178.337 79.7505C178.514 80.9979 180.945 80.2394 181.855 78.6521C182.438 77.6366 182.477 77.2792 182.553 72.1772C182.63 66.9756 182.611 66.7337 182.025 65.5929C181.542 64.6524 181.106 64.2513 179.901 63.6416C178.518 62.9418 178.384 62.7975 178.384 62.0087C178.384 61.4649 178.566 61.0156 178.874 60.7993C179.686 60.2283 179.807 59.3735 179.166 58.7333C178.746 58.3138 178.423 58.2152 177.902 58.3458C176.631 58.6642 176.382 59.9883 177.461 60.6941C178.243 61.2061 178.406 62.7918 177.703 63.061C177.015 63.3245 174.695 63.2418 174.118 62.9329C173.729 62.7249 173.5 62.7249 173.291 62.9329C172.965 63.2589 171.618 63.3245 171.441 63.0233C171.377 62.9149 171.25 62.204 171.16 61.4443C171.007 60.156 169.533 54.0305 169.327 53.8244C169.276 53.7733 168.681 53.9753 168.006 54.2737C166.948 54.741 166.778 54.9227 166.778 55.5873C166.778 56.6127 165.727 57.1581 163.839 57.113C162.816 57.088 162.008 57.2709 160.908 57.776C160.073 58.1597 158.928 58.5472 158.364 58.6372C157.382 58.7942 157.33 58.7656 157.159 57.9882C156.921 56.9092 157.08 56.7161 158.561 56.2766C160.748 55.6279 162.504 54.7645 162.632 54.274C162.702 54.0079 163.204 53.656 163.778 53.4718C164.34 53.291 165.653 52.7894 166.696 52.357C168.256 51.7104 168.552 51.4945 168.368 51.1397C168.245 50.9025 167.938 50.1156 167.686 49.3914C166.829 46.9264 163.342 40.5301 162.46 39.8069C162.273 39.6536 161.729 39.7099 160.996 39.9581C160.355 40.1756 158.836 40.4312 157.622 40.526L155.413 40.6985L156.274 41.8837C156.747 42.5356 157.211 43.1285 157.305 43.2008C158.065 43.7855 162.361 51.7653 162.238 52.363C162.156 52.7571 157.199 55.0378 156.401 55.0486C156.114 55.0521 155.852 54.8111 155.763 54.462C155.548 53.6259 153.149 49.0955 152.171 47.6792C150.925 45.875 148.253 42.696 146.755 41.2353C146.017 40.5162 145.413 39.766 145.413 39.568C145.413 39.3702 145.888 38.7245 146.469 38.1332C147.049 37.5421 147.523 36.9862 147.523 36.898C147.523 36.8097 147.223 36.2958 146.855 35.7555C145.688 34.0396 145.074 30.8954 145.214 27.349C145.282 25.657 145.265 24.1579 145.177 24.0178C144.895 23.5649 140.609 21.5706 137.942 20.6505C136.517 20.1586 135.33 19.7564 135.304 19.7564C135.279 19.7564 135.269 21.1907 135.282 22.9438L135.305 26.1314L137.655 27.1206C139.881 28.0571 141.005 28.6769 143.529 30.3612L144.618 31.0875L143.473 32.6416C142.842 33.4964 141.964 34.6352 141.521 35.1726L140.714 36.1496L139.256 35.4605C138.453 35.0814 137.736 34.7714 137.66 34.7714C137.585 34.7714 136.955 34.4371 136.259 34.0285C135.564 33.62 134.639 33.1579 134.203 33.0017C133.768 32.8455 133.22 32.6398 132.985 32.5444C132.661 32.4124 132.45 32.6438 132.11 33.5051C131.271 35.6336 129.515 38.2169 127.946 39.6355C126.214 41.201 126.212 41.1922 128.401 41.8847C130.067 42.4119 131.434 43.1783 131.434 43.5851C131.434 43.8328 131.011 44.0132 130.181 44.1203C125.745 44.6911 122.055 46.24 118.971 48.8248L117.132 50.3657L116.04 49.3229C113.164 46.5761 108.016 44.2545 104.802 44.2545C104.273 44.2545 103.614 44.0899 103.339 43.8889C102.863 43.541 102.883 43.4957 103.75 42.9675C104.251 42.6618 105.255 42.2198 105.981 41.9852C108.066 41.3104 108.21 41.034 107.023 39.9962C106.47 39.513 105.603 38.6711 105.095 38.125C104.111 37.0668 102.156 33.6798 102.156 33.0344C102.156 32.2075 101.252 32.3969 98.5264 33.7941C96.9683 34.5928 95.3173 35.4623 94.8569 35.7266C94.0446 36.1926 94.0037 36.192 93.4723 35.7115C93.1707 35.4394 92.9244 35.1033 92.9244 34.9647C92.9244 34.8262 92.4671 34.1629 91.9078 33.4909C90.8647 32.2368 90.2866 31.3042 90.2866 30.8746C90.2866 30.2966 96.5149 26.8688 97.565 26.8688C97.7553 26.8688 98.184 26.7447 98.5169 26.593C99.1025 26.3264 99.1231 26.2031 99.1346 22.9051C99.1409 21.0285 99.1409 19.5025 99.1346 19.5138C99.1282 19.5254 97.9953 19.98 96.617 20.524ZM161.853 20.2616C163.245 20.9347 164.758 22.3961 165.672 23.95C166.323 25.0546 166.382 25.3902 166.379 27.9224C166.375 31.1552 166.133 31.766 164.042 33.8426C162.485 35.3886 161.281 36.0237 159.293 36.3467C153.884 37.2259 148.755 31.4149 150.129 25.9631C150.678 23.787 152.564 21.3893 154.563 20.3254C156.343 19.3786 159.963 19.347 161.853 20.2616ZM77.1513 21.653C76.4149 22.3885 76.8957 23.7077 77.9004 23.7077C78.7408 23.7077 79.0995 23.041 78.8318 21.9765C78.655 21.2734 77.7129 21.0922 77.1513 21.653ZM157.504 22.918L157.415 24.499L158.255 24.4985C158.717 24.4982 159.391 24.6104 159.752 24.7477C160.382 24.9866 160.422 24.9403 160.693 23.6811C161.011 22.2007 161.047 21.7041 160.822 21.9291C160.738 22.0134 160.267 21.9146 159.776 21.7097C159.284 21.5047 158.592 21.3369 158.238 21.3369C157.636 21.3369 157.587 21.4412 157.504 22.918ZM70.1088 23.4485C68.4318 23.8039 67.5619 24.5917 66.9574 26.3035C66.7081 27.0086 66.6461 27.5898 66.7901 27.8708C66.916 28.1166 67.1478 28.644 67.3055 29.0425C67.5999 29.7872 68.8406 30.7068 69.935 30.9918C71.5255 31.4059 73.9289 29.8565 74.4132 28.1047C75.1214 25.5438 72.6811 22.9037 70.1088 23.4485ZM152.027 26.5058C151.858 27.1754 151.755 27.7486 151.798 27.7799C151.841 27.8113 152.383 28.0339 153.002 28.2746C154.608 28.8992 155.173 28.8505 155.173 28.0871C155.173 27.7431 155.244 27.1079 155.33 26.6759C155.48 25.9257 155.433 25.877 154.29 25.5893C152.464 25.1302 152.364 25.1707 152.027 26.5058ZM162.206 28.0982C162.11 28.1945 162.027 28.5207 162.022 28.8225C162.018 29.1244 161.84 29.6015 161.627 29.8826C161.059 30.6325 161.123 30.7282 162.411 31.0521C164.037 31.461 164.021 31.4668 164.363 30.3285C164.802 28.8634 164.769 28.762 163.713 28.321C162.641 27.874 162.458 27.8468 162.206 28.0982ZM155.569 32.3998C155.321 33.1435 155.161 33.7912 155.212 33.8394C155.263 33.8876 155.916 34.1073 156.663 34.3275L158.022 34.7277L158.327 33.63C158.494 33.0262 158.687 32.4038 158.756 32.247C158.824 32.09 158.39 31.8148 157.79 31.6354C157.191 31.456 156.547 31.2505 156.359 31.1786C156.136 31.0932 155.862 31.5168 155.569 32.3998ZM106.537 35.3641C108.309 38.4087 112.029 40.4886 116.181 40.7575C119.933 41.0003 122.672 40.2559 125.291 38.2817C126.435 37.4201 128.005 35.6106 128.005 35.1552C128.005 35.0896 127.431 35.4471 126.73 35.9502C122.002 39.3428 115.3 39.8655 110.044 37.2515C109.087 36.7755 107.942 36.0822 107.5 35.7105C106.632 34.9816 106.23 34.8367 106.537 35.3641ZM63.1352 37.3756C62.4283 38.6945 64.2717 40.0257 65.3481 38.9735C65.7665 38.5646 65.8147 38.3342 65.6069 37.7407C65.3996 37.1477 65.1698 36.9952 64.3844 36.9299C63.6363 36.8672 63.3536 36.9683 63.1352 37.3756ZM168.373 37.2594C167.884 37.8479 168.154 38.7951 168.936 39.2319C169.582 39.5928 169.691 39.5844 170.189 39.1342C170.796 38.586 170.903 37.6788 170.418 37.1949C169.982 36.7592 168.757 36.7979 168.373 37.2594ZM103.69 38.2878C103.754 38.8183 103.616 39.0533 103.104 39.2861C102.279 39.6615 101.629 39.2303 101.629 38.3084C101.629 36.996 103.533 36.977 103.69 38.2878ZM132.314 37.5257C132.884 37.9567 132.812 38.6777 132.159 39.0883C131.174 39.7083 130.12 38.1753 131.06 37.4889C131.641 37.0645 131.707 37.0666 132.314 37.5257ZM142.546 38.1959C142.686 38.1959 143.092 38.5096 143.448 38.8929C144.337 39.8516 144.292 40.9366 143.324 41.904C142.519 42.7075 141.92 42.8368 140.863 42.4354C140.362 42.2452 140.168 42.3019 139.91 42.7151C139.519 43.341 138.35 43.2868 137.934 42.6238C137.594 42.0809 138.362 41.0936 139.124 41.0936C139.478 41.0936 139.612 40.8963 139.615 40.369C139.623 38.8818 140.783 37.7449 141.94 38.0908C142.133 38.1487 142.406 38.1959 142.546 38.1959ZM100.043 39.1144C100.233 39.3433 100.298 39.7879 100.198 40.1842C100.053 40.7616 99.9019 40.85 99.1799 40.7803C98.5251 40.7172 98.3118 40.5599 98.2452 40.0913C98.0806 38.9316 99.328 38.2541 100.043 39.1144ZM136.022 39.3154C136.42 39.9511 135.933 40.6747 135.033 40.7819C134.223 40.8783 133.928 40.3849 134.184 39.3641C134.32 38.8236 134.491 38.7058 135.043 38.772C135.423 38.8173 135.863 39.0617 136.022 39.3154ZM141.369 40.1522C141.211 40.5634 141.795 41.195 142.075 40.9157C142.17 40.8202 142.248 40.525 142.248 40.2593C142.248 39.69 141.578 39.6086 141.369 40.1522ZM91.9196 40.501C91.9684 40.7546 92.1834 40.9617 92.3968 40.9617C92.6105 40.9617 92.8251 40.7546 92.8743 40.501C92.9364 40.1772 92.7941 40.0399 92.3968 40.0399C91.9998 40.0399 91.8571 40.1772 91.9196 40.501ZM60.7979 41.6732C60.6239 41.8469 60.4814 42.2972 60.4814 42.6742C60.4814 43.5445 60.9285 43.991 61.8002 43.991C62.672 43.991 63.1191 43.5445 63.1191 42.6742C63.1191 41.8035 62.672 41.357 61.8002 41.357C61.4231 41.357 60.972 41.4991 60.7979 41.6732ZM170.744 41.8663C170.32 42.657 170.42 43.3984 171.004 43.8071C172.204 44.647 173.643 43.522 173.269 42.035C173.122 41.45 172.956 41.357 172.058 41.357C171.299 41.357 170.943 41.495 170.744 41.8663ZM59.9539 45.6816C59.9539 45.9105 60.1417 46.0986 60.3714 46.0986C60.8373 46.0986 60.7563 45.5313 60.2673 45.3687C60.0948 45.3113 59.9539 45.452 59.9539 45.6816ZM90.7619 46.1211C90.8567 46.9379 90.2457 47.5219 89.5323 47.2958C88.3335 46.9157 88.7219 45.2136 89.9746 45.3582C90.513 45.4203 90.7014 45.603 90.7619 46.1211ZM145.412 45.7019C145.676 46.0196 145.656 46.2238 145.307 46.7559C144.853 47.448 144.668 47.5178 143.984 47.2556C143.57 47.0967 143.397 45.8294 143.743 45.4841C144.06 45.167 145.078 45.3002 145.412 45.7019ZM173.149 45.687C173.2 45.9286 173.359 46.1201 173.504 46.1125C173.896 46.0916 173.824 45.5025 173.413 45.3658C173.191 45.2919 173.093 45.4124 173.149 45.687ZM104.181 46.1169C106.497 46.4334 110.384 47.871 112.179 49.0752C113.62 50.0417 116.107 52.0957 116.702 52.8113C117.128 53.3228 117.165 53.3072 118.549 52.051C119.325 51.3455 120.138 50.5712 120.356 50.3296C120.573 50.0883 120.811 49.8933 120.883 49.8965C120.956 49.8996 121.556 49.5302 122.218 49.0759C125.59 46.759 131.423 45.4559 135.801 46.0409C140.279 46.6392 144.374 49.3803 146.836 53.428C148.038 55.4037 149.263 58.8826 149.668 61.4674C150.038 63.829 149.805 69.4288 149.255 71.387C148.713 73.3193 148.731 73.7578 149.354 73.7578C149.636 73.7578 149.924 73.8504 149.994 73.9639C150.195 74.2883 149.601 76.7652 149.271 76.9805C149.108 77.0871 144.449 77.1759 138.919 77.1781L128.863 77.1822L128.431 79.6189C128.05 81.7585 127.315 85.1864 126.329 89.4111C125.982 90.9013 125.459 91.265 125.233 90.1743C125.148 89.7656 124.797 88.4237 124.452 87.1922C124.107 85.9607 123.626 84.0047 123.382 82.8458C123.139 81.6865 122.835 80.442 122.706 80.0799C122.514 79.5374 121.525 75.4503 121.002 73.0333C120.73 71.7809 120.403 72.5444 120.098 75.1406C119.923 76.6254 119.55 79.6782 119.266 81.9237C118.984 84.1695 118.459 88.3581 118.1 91.232C117.741 94.106 117.342 96.9254 117.213 97.4977C116.991 98.4857 117.007 98.5295 117.546 98.3665C118.61 98.0443 125.382 93.4056 128.668 90.7482C132.177 87.9107 136.196 83.6004 138.931 79.741L140.198 77.9533L144.408 77.9939C147.826 78.0269 148.647 78.1068 148.766 78.4185C149.273 79.7362 146.138 85.6966 143.04 89.3077C137.014 96.3293 129.891 101.96 120.936 106.78L117.2 108.79L115.019 107.7C110.245 105.313 105.303 102.064 99.5363 97.5202C97.0926 95.595 93.4149 91.9236 91.4287 89.4282C90.969 88.8505 90.169 87.8441 89.6512 87.1922C89.1331 86.5403 88.7082 85.9131 88.7067 85.798C88.7054 85.6836 88.4964 85.3636 88.2425 85.0875C87.6086 84.3981 85.5949 79.8649 85.4915 78.8944L85.4072 78.1042L89.8126 78.0319C94.1606 77.9609 94.2221 77.9676 94.5338 78.5589C94.7076 78.8884 94.9213 79.2172 95.0088 79.2895C95.0963 79.3621 95.5225 79.9547 95.9559 80.6066C96.7768 81.8416 97.0409 82.1666 99.1707 84.5579C101.59 87.2746 106.607 91.9337 107.113 91.9337C107.219 91.9337 107.656 92.2587 108.085 92.6563C108.888 93.3995 109.324 93.7125 112.707 95.9758C113.795 96.7034 114.744 97.3747 114.817 97.4673C114.889 97.5598 115.157 97.7121 115.41 97.8059C115.94 98.0012 115.974 97.7837 115.622 96.4425C115.037 94.2122 114.191 90.5009 113.484 87.0603C113.067 85.032 112.402 81.7981 112.007 79.8735C111.519 77.5047 111.213 76.5049 111.061 76.7782C110.862 77.1324 109.263 77.1822 98.0638 77.1822C83.657 77.1822 84.97 77.3943 84.612 75.009C84.4379 73.8488 84.4649 73.7578 84.9868 73.7578C85.4329 73.7578 85.522 73.6354 85.4177 73.1649C84.0821 67.1392 84.1532 62.4554 85.657 57.3921C86.8597 53.3424 90.2724 49.1926 93.7259 47.5809C97.2106 45.9546 100.067 45.5548 104.181 46.1169ZM53.5326 46.8437C52.2797 48.2261 54.2864 50.0401 55.7996 48.8929C56.439 48.4081 56.4084 46.986 55.7511 46.6344C54.9725 46.2184 54.0176 46.3085 53.5326 46.8437ZM178.069 46.8228C177.369 47.6373 177.34 48.1247 177.959 48.7049C178.702 49.4025 179.549 49.4129 180.23 48.7328C180.922 48.0419 180.899 47.2809 180.171 46.772C179.399 46.2317 178.56 46.2523 178.069 46.8228ZM58.1453 47.8402C57.3944 48.3656 57.3598 49.9136 58.0901 50.3039C59.366 50.9856 60.5651 50.2741 60.4297 48.9148C60.3226 47.838 59.0226 47.2267 58.1453 47.8402ZM174.785 47.6091C173.994 47.7477 173.314 48.5781 173.417 49.2772C173.465 49.6006 173.831 50.1076 174.23 50.4041L174.955 50.9431L175.68 50.4019C177.058 49.3749 176.401 47.3256 174.785 47.6091ZM87.6667 48.742C87.9936 48.9167 88.1765 49.2931 88.1765 49.7906C88.1765 50.3997 88.0341 50.6026 87.5138 50.7329C86.2699 51.0446 85.5194 49.6006 86.528 48.8359C87.0943 48.4065 87.0465 48.4107 87.6667 48.742ZM148.185 49.2633C148.434 49.6653 148.073 50.5465 147.544 50.8293C147.192 51.0167 146.927 50.9466 146.507 50.5553C145.805 49.9028 145.8 49.6634 146.475 48.99C146.891 48.5736 147.119 48.5166 147.515 48.728C147.794 48.8771 148.095 49.1177 148.185 49.2633ZM56.7887 53.2108C56.4772 53.4033 56.4643 53.519 56.7249 53.7793C56.9797 54.0336 57.1229 54.0362 57.369 53.7904C57.7968 53.363 57.3176 52.8846 56.7887 53.2108ZM176.118 53.3098C175.894 53.8916 176.192 54.1884 176.595 53.786C176.833 53.5482 176.834 53.4011 176.599 53.1668C176.364 52.9324 176.25 52.9664 176.118 53.3098ZM102.186 53.6275C97.4864 54.8894 94.0522 58.4933 92.7642 63.5141C92.2664 65.4537 92.366 71.4137 92.9206 72.9017L93.2399 73.7578H100.199H107.158L107.282 73.1649C107.996 69.7487 108.854 65.3005 109.401 62.177C110.078 58.3078 110.554 57.1508 111.071 58.1191C111.216 58.3896 111.645 60.0333 112.026 61.7721C113.251 67.3653 115.314 75.9231 115.477 76.0851C115.53 76.1387 115.639 75.7849 115.719 75.2991C115.798 74.8133 116.051 73.2901 116.279 71.9137C116.508 70.5373 116.994 67.396 117.358 64.933C117.723 62.47 118.175 59.7143 118.365 58.8084C118.708 57.1638 118.601 56.8125 117.982 57.5573C117.505 58.1309 117.361 58.0833 115.245 56.6574C110.783 53.6503 106.124 52.5694 102.186 53.6275ZM126.554 53.3646C126.264 53.4353 124.988 53.8688 123.719 54.3285C121.992 54.9538 121.411 55.2829 121.411 55.6342C121.411 56.3051 122.66 62.7909 123.152 64.6695C123.379 65.539 123.729 67.1392 123.93 68.2258C124.415 70.8436 125.386 75.4443 125.472 75.5306C125.56 75.6184 126.764 70.7098 127.49 67.3038C128.41 62.9875 128.701 63.152 130.102 68.7826C130.657 71.0116 131.196 73.0434 131.3 73.2968C131.472 73.7121 131.969 73.7578 136.324 73.7578C141.787 73.7578 141.217 74.021 141.706 71.2726C142.107 69.0217 142.049 65.6204 141.569 63.2757C140.776 59.3979 138.091 56.1837 134.096 54.3279C132.38 53.5301 131.835 53.409 129.612 53.3285C128.221 53.278 126.845 53.2942 126.554 53.3646ZM84.364 54.1208C84.7201 54.4766 85.0115 55.0746 85.0115 55.45C85.0115 56.308 83.9195 57.4257 83.0808 57.4257C82.7311 57.4257 82.1322 57.18 81.75 56.8794C80.8229 56.1514 80.763 54.4988 81.6414 53.8843C82.5071 53.2787 83.6173 53.3751 84.364 54.1208ZM152.415 54.1208C153.493 55.1967 153.171 56.6257 151.74 57.1241C150.344 57.6099 149.106 56.7636 149.106 55.3235C149.106 54.553 150.26 53.4743 151.084 53.4743C151.46 53.4743 152.059 53.7654 152.415 54.1208ZM55.9167 56.0134C55.6706 56.2595 55.9679 56.6352 56.4087 56.6352C56.6178 56.6352 56.7887 56.4577 56.7887 56.2401C56.7887 55.8435 56.2319 55.6986 55.9167 56.0134ZM176.681 56.0902C176.597 56.2252 176.65 56.4098 176.797 56.5011C177.112 56.6951 177.593 56.4485 177.593 56.093C177.593 55.7725 176.879 55.7702 176.681 56.0902ZM164.626 59.8281C164.794 60.5574 164.932 61.6187 164.932 62.1872V63.2208H163.499C161.717 63.2208 160.819 63.5493 159.727 64.602C159.257 65.0538 158.788 65.3389 158.684 65.2352C158.58 65.1315 158.416 64.4282 158.318 63.673C158.221 62.9171 158.057 61.9402 157.954 61.5013L157.768 60.7036L160.756 59.5073C162.4 58.8493 163.874 58.3541 164.032 58.407C164.19 58.4597 164.457 59.0995 164.626 59.8281ZM82.3353 60.1471C83.006 60.6846 83.1893 61.6202 82.7783 62.4136C81.8376 64.2304 79.2045 63.6968 79.2126 61.6913C79.2176 60.5162 79.4168 60.1658 80.2711 59.8288C80.9635 59.5555 81.7479 59.6766 82.3353 60.1471ZM154.591 60.2889C155.497 61.4294 155.046 63.0442 153.73 63.3743C152.056 63.7938 150.732 62.2522 151.438 60.7049C151.968 59.5421 153.805 59.2999 154.591 60.2889ZM54.6522 66.877C54.1395 67.2917 54.0229 67.6767 53.934 69.244C53.876 70.2735 53.9042 71.4188 53.9973 71.7888C54.1635 72.4502 54.2028 72.4603 56.3348 72.3852L58.5032 72.3088L59.3042 69.8251C60.4305 66.3323 61.0269 66.3633 61.3996 69.9342C61.5755 71.6182 61.6731 71.8443 62.5533 72.6062L63.5147 73.4388L63.6466 71.7092C63.7191 70.7577 63.9014 69.939 64.0515 69.8898C64.2018 69.8404 64.7784 70.3943 65.3328 71.1204L66.341 72.4407H68.8185H71.2958V69.8213C71.2958 67.4132 71.2485 67.169 70.7094 66.792C70.2127 66.4442 68.9912 66.382 62.6939 66.382C55.8162 66.382 55.2191 66.4188 54.6522 66.877ZM162.888 66.5647L162.03 66.6788V70.6131C162.03 72.9822 162.132 74.548 162.287 74.548C162.427 74.548 162.916 73.3329 163.373 71.8478C163.83 70.3629 164.313 69.0302 164.447 68.8866C164.804 68.5029 165.186 69.2401 165.196 70.3331C165.21 71.9334 165.644 72.1306 165.851 70.6305C166.063 69.0886 166.633 68.808 166.918 70.1051C167.018 70.5592 167.314 71.4089 167.576 71.9939L168.053 73.0571L168.337 72.0003C168.598 71.0341 169.152 68.3308 169.152 68.0258C169.152 67.5879 169.946 68.6605 169.958 69.114C169.966 69.4225 170.187 70.5043 170.449 71.5186L170.927 73.3624L171.126 72.3088C171.787 68.815 171.969 68.1225 172.25 68.0289C172.59 67.9154 172.673 68.2059 173.121 71.0586C173.286 72.1093 173.511 72.9128 173.622 72.844C173.734 72.7755 173.973 72.0206 174.154 71.1664C174.336 70.3125 174.577 69.464 174.69 69.281C175.026 68.7385 175.469 69.2363 175.649 70.3572C175.854 71.6398 175.992 71.5434 176.226 69.9536C176.325 69.2823 176.524 68.7281 176.668 68.7224C176.812 68.717 177.342 70.0252 177.845 71.6299C178.348 73.2346 178.853 74.548 178.967 74.548C179.147 74.548 179.287 66.6804 179.109 66.6249C178.816 66.533 163.55 66.4769 162.888 66.5647ZM78.6374 69.4367C79.7752 70.2326 78.745 71.8804 77.4283 71.3702C76.4671 70.998 76.7396 69.016 77.7519 69.016C77.9083 69.016 78.3069 69.2053 78.6374 69.4367ZM157.064 69.4519C157.656 69.9865 157.675 70.4301 157.132 70.9729C156.046 72.058 154.461 70.9244 155.292 69.6571C155.782 68.9094 156.387 68.8397 157.064 69.4519ZM59.8168 73.0992C59.4696 73.9303 59.1811 74.0127 56.6065 74.0172C55.1605 74.0194 54.1113 74.1361 54.0063 74.3054C53.9095 74.4617 53.9121 75.3527 54.0121 76.2855C54.2809 78.7898 54.1471 78.7523 62.8629 78.7717C71.6162 78.7907 71.2958 78.8966 71.2958 75.9906V74.021H68.3943H65.4929V75.586C65.4929 76.4469 65.369 77.2275 65.2178 77.3211C65.0664 77.4146 64.2148 76.7618 63.3253 75.8708C62.0039 74.547 61.666 74.326 61.4774 74.6627C61.038 75.4469 60.5431 75.0981 60.2876 73.8234C60.0824 72.8006 59.9966 72.668 59.8168 73.0992ZM83.1154 80.3536C84.3843 81.534 83.4895 83.7678 81.7477 83.7678C80.6818 83.7678 79.7351 82.8454 79.7401 81.8121C79.7449 80.8767 79.9253 80.547 80.6594 80.1313C81.4731 79.6703 82.4791 79.7616 83.1154 80.3536ZM154.051 80.5191C154.233 80.7677 154.381 81.4085 154.381 81.9437C154.381 83.0316 153.596 83.7678 152.436 83.7678C151.816 83.7678 150.425 82.4694 150.425 81.8904C150.425 81.4452 151.191 80.1335 151.54 79.9804C152.139 79.7185 153.712 80.0558 154.051 80.5191ZM163.438 84.492C162.163 88.3923 160.703 91.5967 158.628 95.049C157.815 96.4 156.89 97.941 156.572 98.4733C156.254 99.0057 155.76 99.7375 155.474 100.1C155.189 100.462 154.584 101.225 154.13 101.796C153.487 102.605 153.385 102.877 153.666 103.035C154.104 103.279 158.78 104.314 159.447 104.314C160.367 104.314 164.089 98.5602 166.479 93.4408C168.288 89.5677 169.317 86.8504 169.946 84.2945C170.249 83.063 170.558 81.8479 170.634 81.5946C170.759 81.1738 170.498 81.1336 167.653 81.1336H164.535L163.438 84.492ZM55.7337 83.3724C55.7337 83.5918 55.9682 83.7678 56.2612 83.7678C56.5542 83.7678 56.7887 83.5918 56.7887 83.3724C56.7887 83.153 56.5542 82.9773 56.2612 82.9773C55.9682 82.9773 55.7337 83.153 55.7337 83.3724ZM176.405 83.2427C176.204 83.5665 176.93 83.882 177.32 83.6413C177.475 83.5459 177.533 83.3575 177.449 83.2228C177.248 82.8974 176.611 82.9095 176.405 83.2427ZM77.8965 85.2336C78.3253 86.3602 78.2035 86.8586 77.4283 87.1469C75.9145 87.7097 72.699 89.2129 71.5363 89.9006C70.2584 90.6565 68.7233 90.8398 68.1833 90.3005C68.0093 90.1267 67.8668 89.536 67.8668 88.9878C67.8668 88.0575 67.9539 87.9475 69.1769 87.3282C69.8973 86.9639 70.8838 86.6652 71.3688 86.6652C72.2419 86.6652 74.6474 85.8358 76.1754 85.0079C77.2755 84.4118 77.5997 84.4543 77.8965 85.2336ZM56.4371 85.7872C56.1027 86.1211 56.2633 86.4017 56.7887 86.4017C57.0818 86.4017 57.3163 86.2261 57.3163 86.0067C57.3163 85.6059 56.7584 85.4664 56.4371 85.7872ZM175.922 85.7872C175.619 86.0904 175.73 86.4017 176.142 86.4017C176.36 86.4017 176.538 86.2242 176.538 86.0067C176.538 85.5954 176.226 85.4841 175.922 85.7872ZM84.2172 86.2667C84.4078 86.4956 84.4721 86.9404 84.3723 87.3371C84.234 87.8885 84.0676 88.0001 83.4857 87.9332C82.9695 87.8739 82.7454 87.6811 82.6833 87.2436C82.5239 86.1208 83.552 85.466 84.2172 86.2667ZM151.584 86.4677C151.981 87.1009 151.496 87.8267 150.605 87.9332C150.052 87.9991 149.882 87.8815 149.745 87.3371C149.422 86.0495 150.886 85.357 151.584 86.4677ZM57.4482 88.5093C57.3429 88.6793 57.3754 88.937 57.5204 89.082C57.6963 89.2576 57.848 89.2424 57.9757 89.036C58.0809 88.866 58.0485 88.6082 57.9034 88.4633C57.7275 88.2877 57.5758 88.3029 57.4482 88.5093ZM175.087 88.5093C174.982 88.6793 175.014 88.937 175.159 89.082C175.335 89.2576 175.487 89.2424 175.615 89.036C175.72 88.866 175.687 88.6082 175.542 88.4633C175.366 88.2877 175.215 88.3029 175.087 88.5093ZM148.528 91.7536C148.464 92.4141 148.31 92.6116 147.802 92.6833C147.406 92.7391 147.025 92.5929 146.813 92.3034C146.352 91.6743 146.375 91.5 147.002 90.8741C147.781 90.096 148.641 90.5919 148.528 91.7536ZM87.8055 91.2786C87.9007 91.6582 87.8331 92.1075 87.6464 92.3323C87.179 92.8944 86.1355 92.818 85.8029 92.1972C85.3758 91.4004 85.9012 90.6166 86.8619 90.6166C87.472 90.6166 87.6749 90.759 87.8055 91.2786ZM172.515 91.1645C171.978 91.4768 171.884 92.9756 172.37 93.4617C172.934 94.0248 174.371 93.845 174.824 93.1548C175.758 91.7317 174.059 90.2669 172.515 91.1645ZM54.8461 92.2162C53.7354 93.0888 53.958 94.3771 55.2766 94.7078C56.2359 94.9484 57.3163 94.2531 57.3163 93.3957C57.3163 92.8269 56.2554 91.6702 55.7337 91.6702C55.6277 91.6702 55.2283 91.916 54.8461 92.2162ZM176.688 92.3475C175.475 93.5593 177.113 95.2785 178.765 94.5267C179.625 94.1355 179.731 92.6351 178.929 92.2064C178.184 91.8085 177.164 91.8728 176.688 92.3475ZM92.0131 95.4779C93.3156 96.7786 92.5581 98.8079 90.7515 98.8589C89.448 98.896 88.7041 98.2016 88.7041 96.9476C88.7041 95.0061 90.6674 94.1339 92.0131 95.4779ZM144.993 95.424C145.947 96.2754 146.093 97.2016 145.409 98.0697C144.655 99.027 142.765 99.1005 142.132 98.1972C140.698 96.1533 143.149 93.7781 144.993 95.424ZM60.3936 96.0607C60.0592 96.3946 60.2198 96.6752 60.7452 96.6752C61.0383 96.6752 61.2727 96.4996 61.2727 96.2801C61.2727 95.8794 60.7149 95.7399 60.3936 96.0607ZM172.235 96.0553C171.891 96.3987 172.055 96.6752 172.603 96.6752C172.91 96.6752 173.106 96.5373 173.048 96.3626C172.92 95.9773 172.479 95.8109 172.235 96.0553ZM61.5832 98.9283C61.7024 99.5003 62.1706 99.5355 62.2777 98.9803C62.3331 98.6918 62.2038 98.5193 61.9321 98.5193C61.6786 98.5193 61.5333 98.6896 61.5832 98.9283ZM170.867 98.7828C170.777 98.9274 170.76 99.046 170.83 99.046C170.899 99.046 171.143 99.1179 171.373 99.2061C171.646 99.3107 171.79 99.2204 171.79 98.9426C171.79 98.4778 171.126 98.363 170.867 98.7828ZM63.1191 100.819C62.5662 101.029 62.3365 101.438 62.3318 102.22C62.3267 103.081 62.778 103.524 63.6585 103.524C64.9754 103.524 65.7137 101.938 64.8148 101.04C64.3938 100.62 63.8339 100.547 63.1191 100.819ZM168.822 100.911C168.165 101.294 168.198 102.892 168.871 103.252C169.658 103.672 170.418 103.577 171.012 102.984C172.242 101.755 170.388 100 168.822 100.911ZM136.221 102.228C136.981 102.634 137.557 104.132 137.257 104.919C136.451 107.037 133.677 106.907 133.13 104.728C132.661 102.865 134.553 101.336 136.221 102.228ZM99.8784 102.753C101.32 103.886 100.396 106.685 98.5813 106.685C97.7673 106.685 96.3532 105.322 96.3532 104.537C96.3532 103.876 97.0365 102.557 97.4687 102.383C98.216 102.083 99.2224 102.237 99.8784 102.753ZM78.2855 103.875C74.0212 105.952 72.5059 106.62 70.9687 107.098C69.1614 107.661 67.7779 108.735 67.0679 110.125C66.4348 111.364 66.414 112.122 66.9808 113.296C67.9992 115.406 69.7546 116.386 71.8768 116.028C73.8925 115.688 76.3956 112.481 74.6456 112.481C74.3119 112.481 73.912 112.607 73.7567 112.763C73.3779 113.141 71.5595 112.787 71.372 112.299C71.2905 112.087 71.4738 111.747 71.7887 111.527C72.1773 111.255 72.3508 110.854 72.3508 110.226C72.3508 109.173 72.4299 109.135 73.1421 109.846C73.6032 110.307 74.0212 110.373 76.4616 110.373H79.2535L81.0835 111.997L82.9131 113.622L83.6325 112.97C84.9633 111.766 86.2132 110.959 87.3394 110.579L88.4587 110.201L86.2734 108.247C85.0717 107.172 83.3167 105.489 82.3739 104.506L80.6594 102.719L78.2855 103.875ZM64.8797 105.278C64.68 105.477 65.1793 106.159 65.5251 106.159C65.6525 106.159 65.7567 105.921 65.7567 105.632C65.7567 105.125 65.2408 104.918 64.8797 105.278ZM167.951 105.391C167.679 105.83 168.29 106.334 168.654 105.971C168.959 105.667 168.768 105.105 168.361 105.105C168.233 105.105 168.049 105.234 167.951 105.391ZM141.757 108.954L143.688 111.486L142.97 112.049C141.394 113.285 133.36 116.959 132.231 116.959C132.083 116.959 131.961 116.64 131.961 116.252C131.961 114.911 130.958 113.348 129.537 112.475L128.204 111.656L130.676 110.78C133.103 109.921 137.255 107.89 138.556 106.927C138.918 106.658 139.352 106.435 139.52 106.43C139.689 106.426 140.695 107.561 141.757 108.954ZM129.479 113.088C130.114 113.826 130.115 113.839 130.115 120.275C130.115 127.56 130.05 127.888 128.288 129.394C126.922 130.562 125.557 130.92 122.477 130.92H120.084L119.643 129.998L119.203 129.076H117.265C115.329 129.076 115.326 129.077 114.782 129.998L114.237 130.92L111.824 130.918C107.805 130.916 105.859 130.017 104.745 127.648C104.163 126.412 104.134 126.071 104.134 120.378C104.134 113.785 104.248 113.227 105.717 112.576C106.342 112.3 108.852 112.239 117.675 112.288L128.842 112.349L129.479 113.088ZM88.0446 112.888C87.4644 113.118 86.8118 113.371 86.594 113.452C85.9399 113.695 84.4452 115.576 84.0685 116.63C83.1864 119.098 83.8808 122.362 85.6146 123.901C87.9945 126.014 90.3573 126.421 92.866 125.151C94.6886 124.229 95.3503 123.555 96.129 121.829C97.26 119.322 96.6497 116.225 94.6277 114.206C93.1812 112.761 89.9857 112.121 88.0446 112.888ZM92.7316 115.332C93.2139 115.813 93.3299 116.488 93.1593 117.815C93.127 118.068 93.0014 118.276 92.8803 118.276C92.7595 118.276 92.6606 118.461 92.6606 118.686C92.6606 118.912 92.5607 119.036 92.4386 118.96C92.3165 118.885 91.8184 119.233 91.3317 119.735C90.845 120.236 90.3462 120.647 90.2223 120.647C89.7669 120.647 87.4013 118.036 87.2266 117.34C86.9922 116.409 87.3807 115.33 88.0744 114.985C88.3756 114.835 89.428 114.732 90.4122 114.757C91.8127 114.793 92.3169 114.918 92.7316 115.332ZM111.718 114.785C114.728 114.827 119.654 114.827 122.664 114.785C125.674 114.743 123.211 114.708 117.191 114.708C111.17 114.708 108.708 114.743 111.718 114.785ZM106.478 117.337C106.257 117.912 106.478 127.053 106.721 127.43C106.888 127.686 109.211 127.745 117.14 127.698L127.346 127.637L117.191 127.5L107.036 127.364L106.955 126.674C106.894 126.146 107.014 125.948 107.462 125.83C108.257 125.623 125.981 125.597 126.799 125.802C127.156 125.892 127.501 126.161 127.564 126.401C127.628 126.641 127.694 124.614 127.711 121.898L127.741 116.959H117.182C108.254 116.959 106.601 117.017 106.478 117.337ZM77.3623 117.414C76.0804 117.901 76.474 119.856 77.8537 119.856C78.2871 119.856 78.9449 119.062 78.9449 118.539C78.9449 118.055 78.2823 117.203 77.9371 117.243C77.8384 117.254 77.5799 117.332 77.3623 117.414ZM155.851 117.636C155.623 117.864 155.437 118.27 155.437 118.539C155.437 119.1 156.105 119.856 156.601 119.856C157.056 119.856 157.81 118.992 157.81 118.471C157.81 117.957 157.112 117.222 156.623 117.222C156.427 117.222 156.079 117.408 155.851 117.636ZM118.51 118.276C119.588 119.353 118.864 121.174 117.358 121.174C116.298 121.174 115.69 120.733 115.465 119.803C115.333 119.252 115.445 118.942 115.967 118.421C116.774 117.614 117.79 117.557 118.51 118.276ZM87.01 118.562C87.284 118.864 88.0814 119.531 88.7828 120.046C89.9699 120.916 90.105 120.955 90.7432 120.616C91.1199 120.415 91.99 119.748 92.6767 119.132C93.3632 118.516 94.056 118.012 94.2161 118.012C94.3965 118.012 94.5069 118.624 94.5069 119.621C94.5069 121.047 94.4273 121.293 93.8027 121.794C92.7623 122.628 90.3028 124.334 90.1408 124.334C90.0637 124.334 89.3405 123.831 88.5342 123.215C87.7275 122.599 86.7833 121.918 86.4355 121.7C85.8787 121.352 85.8035 121.11 85.8032 119.659C85.8029 117.855 86.1136 117.573 87.01 118.562ZM152.923 120.66C152.672 121.065 153.015 121.326 153.354 120.988C153.543 120.799 153.548 120.652 153.367 120.54C153.22 120.449 153.02 120.503 152.923 120.66ZM127.346 122.541C127.346 123.391 127.314 123.416 126.027 123.56L124.708 123.708L126.027 123.823C127.227 123.929 127.346 123.999 127.346 124.598V125.257L117.107 125.325L106.868 125.394L106.952 124.667L107.036 123.939L115.872 123.802L124.708 123.665L115.806 123.605L106.904 123.544V122.629V121.714L110.794 121.642C112.934 121.602 117.534 121.591 121.015 121.619L127.346 121.669V122.541ZM150.212 122.774C150.264 122.93 150.419 123.057 150.557 123.057C150.694 123.057 150.85 122.93 150.902 122.774C150.954 122.618 150.799 122.491 150.557 122.491C150.315 122.491 150.16 122.618 150.212 122.774ZM147.523 124.598C147.523 124.743 147.642 124.861 147.787 124.861C147.932 124.861 148.051 124.743 148.051 124.598C148.051 124.453 147.932 124.334 147.787 124.334C147.642 124.334 147.523 124.453 147.523 124.598ZM144.798 125.827C144.494 126.13 144.606 126.442 145.018 126.442C145.235 126.442 145.413 126.264 145.413 126.047C145.413 125.635 145.101 125.524 144.798 125.827ZM141.889 127.152C141.574 127.466 141.719 128.022 142.116 128.022C142.334 128.022 142.512 127.852 142.512 127.643C142.512 127.203 142.136 126.906 141.889 127.152ZM92.5207 128.299C92.2699 128.704 92.6133 128.965 92.9519 128.627C93.1412 128.438 93.1457 128.291 92.9656 128.18C92.8178 128.089 92.6178 128.142 92.5207 128.299ZM138.819 128.857C138.819 128.977 138.997 129.076 139.215 129.076C139.433 129.076 139.611 128.977 139.611 128.857C139.611 128.736 139.433 128.637 139.215 128.637C138.997 128.637 138.819 128.736 138.819 128.857ZM95.5621 129.75C95.5621 129.976 95.6807 130.088 95.8259 129.998C95.9708 129.909 96.0897 129.724 96.0897 129.587C96.0897 129.451 95.9708 129.339 95.8259 129.339C95.6807 129.339 95.5621 129.524 95.5621 129.75ZM135.797 129.848C135.617 130.139 136.033 130.454 136.277 130.21C136.528 129.96 136.481 129.603 136.197 129.603C136.061 129.603 135.881 129.713 135.797 129.848ZM98.6066 130.375C98.4265 130.666 98.8425 130.981 99.086 130.737C99.3369 130.487 99.2899 130.13 99.0065 130.13C98.8698 130.13 98.69 130.24 98.6066 130.375ZM132.753 130.788C132.753 131.03 132.88 131.185 133.036 131.133C133.192 131.081 133.32 130.926 133.32 130.788C133.32 130.651 133.192 130.496 133.036 130.444C132.88 130.392 132.753 130.547 132.753 130.788ZM106.245 136.224C103.343 136.345 99.9009 136.54 98.5952 136.658L96.2216 136.872L100.969 137.06C103.581 137.163 108.091 137.382 110.992 137.546C114.918 137.769 117.65 137.769 121.675 137.548C124.648 137.385 129.396 137.164 132.225 137.058C137.118 136.873 137.253 136.855 134.995 136.671C126.754 136.002 115.724 135.831 106.245 136.224Z" fill="#1976D2"/>
<path d="M68.4167 148.228V170.687H62.9462V157.218L57.9235 170.687H53.5087L48.454 157.186V170.687H42.9835V148.228H49.4458L55.7481 163.776L61.9864 148.228H68.4167ZM89.1782 161.473C89.1782 161.985 89.1462 162.518 89.0823 163.073H76.7015C76.7869 164.182 77.1388 165.035 77.7573 165.632C78.3971 166.208 79.1756 166.496 80.0926 166.496C81.4576 166.496 82.4067 165.92 82.9399 164.768H88.7623C88.4638 165.941 87.9199 166.997 87.1308 167.935C86.363 168.874 85.3926 169.609 84.2196 170.143C83.0465 170.676 81.7349 170.942 80.2846 170.942C78.5357 170.942 76.9788 170.569 75.6138 169.823C74.2489 169.076 73.1825 168.01 72.4147 166.624C71.6469 165.237 71.263 163.616 71.263 161.761C71.263 159.905 71.6362 158.284 72.3827 156.898C73.1505 155.512 74.2169 154.445 75.5818 153.699C76.9468 152.953 78.5144 152.579 80.2846 152.579C82.0121 152.579 83.5477 152.942 84.8914 153.667C86.235 154.392 87.2801 155.427 88.0265 156.77C88.7943 158.114 89.1782 159.681 89.1782 161.473ZM83.5797 160.033C83.5797 159.095 83.2598 158.348 82.62 157.794C81.9801 157.239 81.1804 156.962 80.2206 156.962C79.3035 156.962 78.5251 157.229 77.8852 157.762C77.2667 158.295 76.8828 159.052 76.7335 160.033H83.5797ZM90.9765 161.729C90.9765 159.895 91.3178 158.284 92.0002 156.898C92.7041 155.512 93.6531 154.445 94.8475 153.699C96.0418 152.953 97.3748 152.579 98.8464 152.579C100.019 152.579 101.086 152.825 102.046 153.315C103.027 153.806 103.794 154.467 104.349 155.299V147.013H109.82V170.687H104.349V168.127C103.837 168.98 103.101 169.663 102.142 170.175C101.203 170.687 100.105 170.942 98.8464 170.942C97.3748 170.942 96.0418 170.569 94.8475 169.823C93.6531 169.055 92.7041 167.978 92.0002 166.592C91.3178 165.184 90.9765 163.563 90.9765 161.729ZM104.349 161.761C104.349 160.396 103.965 159.319 103.197 158.53C102.451 157.741 101.534 157.346 100.446 157.346C99.3583 157.346 98.4305 157.741 97.6627 158.53C96.9163 159.298 96.543 160.364 96.543 161.729C96.543 163.094 96.9163 164.182 97.6627 164.992C98.4305 165.781 99.3583 166.176 100.446 166.176C101.534 166.176 102.451 165.781 103.197 164.992C103.965 164.203 104.349 163.126 104.349 161.761Z" fill="#363949"/>
<path d="M129.933 148.228V152.611H123.983V170.687H118.512V152.611H112.562V148.228H129.933ZM149.506 161.473C149.506 161.985 149.474 162.518 149.41 163.073H137.029C137.115 164.182 137.467 165.035 138.085 165.632C138.725 166.208 139.503 166.496 140.42 166.496C141.785 166.496 142.734 165.92 143.268 164.768H149.09C148.792 165.941 148.248 166.997 147.459 167.935C146.691 168.874 145.72 169.609 144.547 170.143C143.374 170.676 142.063 170.942 140.612 170.942C138.863 170.942 137.307 170.569 135.942 169.823C134.577 169.076 133.51 168.01 132.742 166.624C131.975 165.237 131.591 163.616 131.591 161.761C131.591 159.905 131.964 158.284 132.71 156.898C133.478 155.512 134.545 154.445 135.91 153.699C137.275 152.953 138.842 152.579 140.612 152.579C142.34 152.579 143.876 152.942 145.219 153.667C146.563 154.392 147.608 155.427 148.354 156.77C149.122 158.114 149.506 159.681 149.506 161.473ZM143.907 160.033C143.907 159.095 143.588 158.348 142.948 157.794C142.308 157.239 141.508 156.962 140.548 156.962C139.631 156.962 138.853 157.229 138.213 157.762C137.594 158.295 137.211 159.052 137.061 160.033H143.907ZM151.304 161.761C151.304 159.905 151.678 158.284 152.424 156.898C153.192 155.512 154.247 154.445 155.591 153.699C156.956 152.953 158.513 152.579 160.262 152.579C162.501 152.579 164.367 153.166 165.86 154.339C167.375 155.512 168.366 157.165 168.836 159.298H163.013C162.523 157.933 161.574 157.25 160.166 157.25C159.164 157.25 158.364 157.645 157.767 158.434C157.169 159.202 156.871 160.311 156.871 161.761C156.871 163.211 157.169 164.331 157.767 165.12C158.364 165.888 159.164 166.272 160.166 166.272C161.574 166.272 162.523 165.589 163.013 164.224H168.836C168.366 166.314 167.375 167.957 165.86 169.151C164.346 170.345 162.48 170.942 160.262 170.942C158.513 170.942 156.956 170.569 155.591 169.823C154.247 169.076 153.192 168.01 152.424 166.624C151.678 165.237 151.304 163.616 151.304 161.761ZM182.735 152.643C184.782 152.643 186.425 153.326 187.662 154.691C188.899 156.034 189.517 157.89 189.517 160.257V170.687H184.079V160.993C184.079 159.799 183.769 158.871 183.151 158.21C182.532 157.549 181.701 157.218 180.656 157.218C179.61 157.218 178.779 157.549 178.16 158.21C177.542 158.871 177.232 159.799 177.232 160.993V170.687H171.762V147.013H177.232V155.235C177.787 154.445 178.544 153.816 179.504 153.347C180.464 152.878 181.541 152.643 182.735 152.643Z" fill="#1976D2"/>
</svg>
