<svg width="85" height="61" viewBox="0 0 85 61" fill="none" xmlns="http://www.w3.org/2000/svg">
<path d="M79.6094 0.8125H5.39062C4.20998 0.813789 3.07806 1.28337 2.24321 2.11821C1.40837 2.95306 0.938789 4.08498 0.9375 5.26562V55.7344C0.938785 56.915 1.40836 58.0469 2.24321 58.8818C3.07805 59.7166 4.20998 60.1862 5.39062 60.1875H79.6094C80.79 60.1862 81.9219 59.7166 82.7568 58.8818C83.5916 58.0469 84.0612 56.915 84.0625 55.7344V5.26562C84.0612 4.08498 83.5916 2.95306 82.7568 2.11821C81.9219 1.28337 80.79 0.813789 79.6094 0.8125ZM3.90625 5.26562C3.90675 4.8721 4.0633 4.49483 4.34156 4.21656C4.61983 3.9383 4.9971 3.78175 5.39062 3.78125H79.6094C80.0029 3.78175 80.3802 3.9383 80.6584 4.21656C80.9367 4.49483 81.0933 4.8721 81.0938 5.26562V9.71875H3.90625V5.26562ZM81.0938 55.7344C81.0933 56.1279 80.9367 56.5052 80.6584 56.7834C80.3802 57.0617 80.0029 57.2183 79.6094 57.2188H5.39062C4.9971 57.2183 4.61983 57.0617 4.34156 56.7834C4.06329 56.5052 3.90674 56.1279 3.90625 55.7344V12.6875H81.0938V55.7344Z" fill="white"/>
<path d="M76.6552 5.26562H76.6406C76.2456 5.26755 75.8676 5.42605 75.5893 5.70637C75.311 5.98668 75.1553 6.36593 75.1562 6.76091C75.1572 7.15589 75.3148 7.53437 75.5944 7.81332C75.8741 8.09228 76.2529 8.24893 76.6479 8.24893C77.0429 8.24893 77.4217 8.09228 77.7014 7.81332C77.981 7.53437 78.1386 7.15589 78.1396 6.76091C78.1405 6.36593 77.9848 5.98668 77.7065 5.70637C77.4282 5.42605 77.0502 5.26755 76.6552 5.26562ZM70.7031 5.26562H70.6886C70.2936 5.26755 69.9155 5.42605 69.6372 5.70637C69.359 5.98668 69.2032 6.36593 69.2042 6.76091C69.2052 7.15589 69.3627 7.53437 69.6424 7.81332C69.922 8.09228 70.3009 8.24893 70.6958 8.24893C71.0908 8.24893 71.4697 8.09228 71.7493 7.81332C72.029 7.53437 72.1865 7.15589 72.1875 6.76091C72.1885 6.36593 72.0327 5.98668 71.7545 5.70637C71.4762 5.42605 71.0981 5.26755 70.7031 5.26562ZM64.7729 5.26562H64.7583C64.3634 5.26755 63.9853 5.42605 63.707 5.70637C63.4287 5.98668 63.273 6.36593 63.274 6.76091C63.2749 7.15589 63.4325 7.53437 63.7121 7.81332C63.9918 8.09228 64.3706 8.24893 64.7656 8.24893C65.1606 8.24893 65.5395 8.09228 65.8191 7.81332C66.0987 7.53437 66.2563 7.15589 66.2573 6.76091C66.2582 6.36593 66.1025 5.98668 65.8242 5.70637C65.546 5.42605 65.1679 5.26755 64.7729 5.26562ZM8.35938 18.625H18.75C19.1437 18.625 19.5212 18.4686 19.7996 18.1902C20.078 17.9119 20.2344 17.5343 20.2344 17.1406C20.2344 16.7469 20.078 16.3694 19.7996 16.091C19.5212 15.8126 19.1437 15.6562 18.75 15.6562H8.35938C7.96569 15.6562 7.58814 15.8126 7.30976 16.091C7.03139 16.3694 6.875 16.7469 6.875 17.1406C6.875 17.5343 7.03139 17.9119 7.30976 18.1902C7.58814 18.4686 7.96569 18.625 8.35938 18.625ZM8.35938 24.5625H18.75C19.1437 24.5625 19.5212 24.4061 19.7996 24.1277C20.078 23.8494 20.2344 23.4718 20.2344 23.0781C20.2344 22.6844 20.078 22.3069 19.7996 22.0285C19.5212 21.7501 19.1437 21.5938 18.75 21.5938H8.35938C7.96569 21.5938 7.58814 21.7501 7.30976 22.0285C7.03139 22.3069 6.875 22.6844 6.875 23.0781C6.875 23.4718 7.03139 23.8494 7.30976 24.1277C7.58814 24.4061 7.96569 24.5625 8.35938 24.5625ZM8.35938 30.5H18.75C19.1437 30.5 19.5212 30.3436 19.7996 30.0652C20.078 29.7869 20.2344 29.4093 20.2344 29.0156C20.2344 28.6219 20.078 28.2444 19.7996 27.966C19.5212 27.6876 19.1437 27.5312 18.75 27.5312H8.35938C7.96569 27.5312 7.58814 27.6876 7.30976 27.966C7.03139 28.2444 6.875 28.6219 6.875 29.0156C6.875 29.4093 7.03139 29.7869 7.30976 30.0652C7.58814 30.3436 7.96569 30.5 8.35938 30.5ZM8.35938 36.4375H18.75C19.1437 36.4375 19.5212 36.2811 19.7996 36.0027C20.078 35.7244 20.2344 35.3468 20.2344 34.9531C20.2344 34.5594 20.078 34.1819 19.7996 33.9035C19.5212 33.6251 19.1437 33.4688 18.75 33.4688H8.35938C7.96569 33.4688 7.58814 33.6251 7.30976 33.9035C7.03139 34.1819 6.875 34.5594 6.875 34.9531C6.875 35.3468 7.03139 35.7244 7.30976 36.0027C7.58814 36.2811 7.96569 36.4375 8.35938 36.4375ZM52.8906 33.4688H65.981C66.1987 33.4689 66.4138 33.4211 66.6109 33.3288C66.8081 33.2365 66.9825 33.102 67.1218 32.9347C67.2611 32.7674 67.3619 32.5715 67.417 32.361C67.4722 32.1504 67.4803 31.9302 67.4408 31.7162C66.8164 28.3679 65.2419 25.27 62.905 22.7922L64.2097 20.1094H70.7031C71.0968 20.1094 71.4744 19.953 71.7527 19.6746C72.0311 19.3962 72.1875 19.0187 72.1875 18.625C72.1875 18.2313 72.0311 17.8538 71.7527 17.5754C71.4744 17.297 71.0968 17.1406 70.7031 17.1406H63.2812C63.0028 17.1406 62.73 17.2189 62.4939 17.3665C62.2578 17.5142 62.068 17.7252 61.9462 17.9756L60.6104 20.7215C58.4161 19.0611 55.8646 17.9355 53.1588 17.4342C52.9448 17.3948 52.7246 17.4029 52.5141 17.458C52.3035 17.5131 52.1076 17.6139 51.9403 17.7532C51.7731 17.8925 51.6385 18.067 51.5462 18.2641C51.4539 18.4613 51.4061 18.6763 51.4062 18.894V31.9844C51.4063 32.378 51.5627 32.7556 51.8411 33.0339C52.1194 33.3123 52.497 33.4687 52.8906 33.4688ZM54.375 20.7892C56.6522 21.5134 58.7225 22.7731 60.4122 24.4628C62.1019 26.1525 63.3616 28.2228 64.0858 30.5H54.375V20.7892ZM76.6406 20.1094H76.6552C77.0502 20.1074 77.4282 19.9489 77.7065 19.6686C77.9848 19.3883 78.1405 19.0091 78.1396 18.6141C78.1386 18.2191 77.981 17.8406 77.7014 17.5617C77.4217 17.2827 77.0429 17.1261 76.6479 17.1261C76.2529 17.1261 75.8741 17.2827 75.5944 17.5617C75.3148 17.8406 75.1572 18.2191 75.1562 18.6141C75.1553 19.0091 75.311 19.3883 75.5893 19.6686C75.8676 19.9489 76.2456 20.1074 76.6406 20.1094Z" fill="white"/>
<path d="M76.6406 21.5935H72.1875C71.7938 21.5935 71.4163 21.7499 71.1379 22.0283C70.8595 22.3067 70.7031 22.6842 70.7031 23.0779C70.7031 23.4716 70.8595 23.8492 71.1379 24.1275C71.4163 24.4059 71.7938 24.5623 72.1875 24.5623H76.6406C77.0343 24.5623 77.4119 24.4059 77.6902 24.1275C77.9686 23.8492 78.125 23.4716 78.125 23.0779C78.125 22.6842 77.9686 22.3067 77.6902 22.0283C77.4119 21.7499 77.0343 21.5935 76.6406 21.5935ZM35.9247 46.1785L34.1642 49.7967H27.6708C27.2771 49.7967 26.8996 49.9531 26.6212 50.2314C26.3428 50.5098 26.1864 50.8874 26.1864 51.281C26.1864 51.6747 26.3428 52.0523 26.6212 52.3307C26.8996 52.609 27.2771 52.7654 27.6708 52.7654H35.0927C35.3711 52.7655 35.644 52.6872 35.88 52.5395C36.1161 52.3919 36.3059 52.1808 36.4277 51.9305L38.1858 48.318C40.5469 50.4009 43.4187 51.8196 46.5077 52.4291C49.5967 53.0386 52.7921 52.817 55.7674 51.7869C58.7427 50.7569 61.3912 48.9553 63.4421 46.5664C65.4931 44.1775 66.873 41.2868 67.4408 38.1899C67.4803 37.9758 67.4722 37.7557 67.417 37.5451C67.3619 37.3345 67.2611 37.1386 67.1218 36.9714C66.9825 36.8041 66.8081 36.6695 66.6109 36.5772C66.4138 36.4849 66.1987 36.4372 65.981 36.4373H48.4375V18.8938C48.4376 18.6761 48.3899 18.461 48.2976 18.2639C48.2053 18.0668 48.0707 17.8923 47.9034 17.753C47.7362 17.6137 47.5403 17.5129 47.3297 17.4578C47.1191 17.4027 46.899 17.3945 46.6849 17.434C43.6575 17.9903 40.8262 19.3225 38.4677 21.3004C36.1093 23.2784 34.3044 25.8344 33.2295 28.7187C32.1545 31.603 31.8464 34.7169 32.3351 37.7559C32.8238 40.795 34.0926 43.6552 36.0176 46.0571C35.9844 46.0958 35.9534 46.1364 35.9247 46.1785ZM45.4688 20.7868V37.9217C45.4688 38.3153 45.6252 38.6929 45.9036 38.9712C46.1819 39.2496 46.5595 39.406 46.9531 39.406H64.088C63.322 41.8404 61.9414 44.0362 60.0795 45.7816C58.2176 47.5269 55.9372 48.7629 53.4585 49.3702C50.9797 49.9775 48.3863 49.9356 45.9285 49.2486C43.4706 48.5616 41.2314 47.2526 39.4268 45.448C37.6222 43.6435 36.3133 41.4042 35.6262 38.9464C34.9392 36.4885 34.8973 33.8951 35.5046 31.4163C36.1119 28.9376 37.3479 26.6572 39.0932 24.7953C40.8386 22.9334 43.0344 21.5528 45.4688 20.7868ZM21.7333 52.7654C22.127 52.7654 22.5045 52.609 22.7829 52.3307C23.0613 52.0523 23.2177 51.6747 23.2177 51.281C23.2177 50.8874 23.0613 50.5098 22.7829 50.2314C22.5045 49.9531 22.127 49.7967 21.7333 49.7967H21.7188C21.3251 49.7986 20.9483 49.9568 20.6713 50.2366C20.3943 50.5163 20.2397 50.8946 20.2417 51.2883C20.2436 51.682 20.4018 52.0588 20.6816 52.3358C20.9613 52.6128 21.3396 52.7673 21.7333 52.7654Z" fill="white"/>
<path d="M21.7333 48.3125H26.1864C26.5801 48.3125 26.9576 48.1561 27.236 47.8777C27.5144 47.5994 27.6708 47.2218 27.6708 46.8281C27.6708 46.4344 27.5144 46.0569 27.236 45.7785C26.9576 45.5001 26.5801 45.3438 26.1864 45.3438H21.7333C21.3396 45.3438 20.962 45.5001 20.6837 45.7785C20.4053 46.0569 20.2489 46.4344 20.2489 46.8281C20.2489 47.2218 20.4053 47.5994 20.6837 47.8777C20.962 48.1561 21.3396 48.3125 21.7333 48.3125Z" fill="white"/>
</svg>
