<svg width="90" height="90" viewBox="0 0 90 90" fill="none" xmlns="http://www.w3.org/2000/svg">
<g clip-path="url(#clip0_41_14)">
<path d="M85.8775 79.5019H59.1678C57.2145 79.5019 55.6259 77.9133 55.6259 75.96V58.8449C55.6259 56.8916 57.2145 55.303 59.1678 55.303H85.8775C87.8308 55.303 89.4194 56.8916 89.4194 58.8449V75.96C89.4194 77.9133 87.8308 79.5019 85.8775 79.5019ZM59.1678 57.7417C58.5593 57.7417 58.0646 58.2364 58.0646 58.8449V75.96C58.0646 76.5685 58.5593 77.0632 59.1678 77.0632H85.8775C86.486 77.0632 86.9807 76.5685 86.9807 75.96V58.8449C86.9807 58.2364 86.486 57.7417 85.8775 57.7417H59.1678Z" fill="white"/>
<path d="M88.2001 74.8528H56.8452C56.1717 74.8528 55.6259 74.307 55.6259 73.6334C55.6259 72.9599 56.1717 72.4141 56.8452 72.4141H88.2001C88.8736 72.4141 89.4194 72.9599 89.4194 73.6334C89.4194 74.307 88.8736 74.8528 88.2001 74.8528ZM69.6635 85.5401C68.99 85.5401 68.4442 84.9943 68.4442 84.3208V78.2826C68.4442 77.6091 68.99 77.0633 69.6635 77.0633C70.3371 77.0633 70.8829 77.6091 70.8829 78.2826V84.3202C70.8829 84.9937 70.3371 85.5401 69.6635 85.5401ZM75.3817 85.5401C74.7082 85.5401 74.1624 84.9943 74.1624 84.3208V78.2826C74.1624 77.6091 74.7082 77.0633 75.3817 77.0633C76.0553 77.0633 76.6011 77.6091 76.6011 78.2826V84.3202C76.6011 84.9937 76.0547 85.5401 75.3817 85.5401Z" fill="white"/>
<path d="M78.5573 85.7085H66.4886C65.815 85.7085 65.2692 85.1627 65.2692 84.4891C65.2692 83.8156 65.815 83.2698 66.4886 83.2698H78.5573C79.2308 83.2698 79.7767 83.8156 79.7767 84.4891C79.7767 85.1627 79.2303 85.7085 78.5573 85.7085Z" fill="white"/>
<path d="M30.8324 79.5019H4.12269C2.16939 79.5019 0.58075 77.9133 0.58075 75.96V58.8449C0.58075 56.8916 2.16939 55.303 4.12269 55.303H30.8324C32.7857 55.303 34.3743 56.8916 34.3743 58.8449V75.96C34.3743 77.9133 32.7857 79.5019 30.8324 79.5019ZM4.12269 57.7417C3.51417 57.7417 3.01946 58.2364 3.01946 58.8449V75.96C3.01946 76.5685 3.51417 77.0632 4.12269 77.0632H30.8324C31.4409 77.0632 31.9356 76.5685 31.9356 75.96V58.8449C31.9356 58.2364 31.4409 57.7417 30.8324 57.7417H4.12269Z" fill="white"/>
<path d="M33.155 74.8528H1.8002C1.12665 74.8528 0.580841 74.307 0.580841 73.6334C0.580841 72.9599 1.12665 72.4141 1.8002 72.4141H33.155C33.8286 72.4141 34.3744 72.9599 34.3744 73.6334C34.3744 74.307 33.8286 74.8528 33.155 74.8528ZM20.3367 85.5262C19.6632 85.5262 19.1174 84.9804 19.1174 84.3068V78.2826C19.1174 77.6091 19.6632 77.0633 20.3367 77.0633C21.0103 77.0633 21.5561 77.6091 21.5561 78.2826V84.3068C21.5561 84.9804 21.0097 85.5262 20.3367 85.5262ZM14.6185 85.5262C13.945 85.5262 13.3992 84.9804 13.3992 84.3068V78.2826C13.3992 77.6091 13.945 77.0633 14.6185 77.0633C15.2921 77.0633 15.8379 77.6091 15.8379 78.2826V84.3068C15.8379 84.9804 15.2921 85.5262 14.6185 85.5262Z" fill="white"/>
<path d="M23.5122 85.7085H11.4429C10.7693 85.7085 10.2235 85.1627 10.2235 84.4891C10.2235 83.8156 10.7693 83.2698 11.4429 83.2698H23.5116C24.1852 83.2698 24.731 83.8156 24.731 84.4891C24.731 85.1627 24.1852 85.7085 23.5122 85.7085Z" fill="white"/>
<path d="M72.7265 57.7415C72.0529 57.7415 71.5071 57.1957 71.5071 56.5222V48.5569H18.493V56.5222C18.493 57.1957 17.9472 57.7415 17.2737 57.7415C16.6001 57.7415 16.0543 57.1957 16.0543 56.5222V47.3375C16.0543 46.664 16.6001 46.1182 17.2737 46.1182H72.727C73.4006 46.1182 73.9464 46.664 73.9464 47.3375V56.5222C73.9458 57.1957 73.4 57.7415 72.7265 57.7415Z" fill="white"/>
<path d="M45.0001 48.5571C44.3265 48.5571 43.7807 48.0113 43.7807 47.3377V38.1537C43.7807 37.4801 44.3265 36.9343 45.0001 36.9343C45.6736 36.9343 46.2194 37.4801 46.2194 38.1537V47.3383C46.2194 48.0113 45.6736 48.5571 45.0001 48.5571Z" fill="white"/>
<path d="M60.9759 32.1288H29.0242C27.0709 32.1288 25.4822 30.5401 25.4822 28.5869V7.83344C25.4822 5.88015 27.0709 4.2915 29.0242 4.2915H60.9759C62.9292 4.2915 64.5179 5.88015 64.5179 7.83344V28.5869C64.5179 30.5401 62.9292 32.1288 60.9759 32.1288ZM29.0242 6.73021C28.4157 6.73021 27.9209 7.22492 27.9209 7.83344V28.5869C27.9209 29.1954 28.4157 29.6901 29.0242 29.6901H60.9759C61.5844 29.6901 62.0791 29.1954 62.0791 28.5869V7.83344C62.0791 7.22492 61.5844 6.73021 60.9759 6.73021H29.0242Z" fill="white"/>
<path d="M63.2985 26.7021H26.7016C26.028 26.7021 25.4822 26.1563 25.4822 25.4828C25.4822 24.8092 26.028 24.2634 26.7016 24.2634H63.2985C63.972 24.2634 64.5178 24.8092 64.5178 25.4828C64.5178 26.1563 63.972 26.7021 63.2985 26.7021ZM40.4274 39.1761C39.7539 39.1761 39.2081 38.6303 39.2081 37.9568V30.9095C39.2081 30.2359 39.7539 29.6901 40.4274 29.6901C41.101 29.6901 41.6468 30.2359 41.6468 30.9095V37.9568C41.6468 38.6303 41.101 39.1761 40.4274 39.1761ZM49.5726 39.1761C48.899 39.1761 48.3532 38.6303 48.3532 37.9568V30.9095C48.3532 30.2359 48.899 29.6901 49.5726 29.6901C50.2461 29.6901 50.792 30.2359 50.792 30.9095V37.9568C50.792 38.6303 50.2461 39.1761 49.5726 39.1761Z" fill="white"/>
<path d="M53.5994 39.373H36.4007C35.7271 39.373 35.1813 38.8272 35.1813 38.1537C35.1813 37.4801 35.7271 36.9343 36.4007 36.9343H53.5994C54.2729 36.9343 54.8188 37.4801 54.8188 38.1537C54.8188 38.8272 54.2729 39.373 53.5994 39.373Z" fill="white"/>
<path d="M34.1656 47.3244V48.321H34.0449V47.451H34.039L33.7957 47.6125V47.4899L34.0449 47.3244H34.1656ZM34.7636 48.3347C34.7065 48.3347 34.6551 48.3233 34.6094 48.3006C34.5636 48.2779 34.527 48.2468 34.4994 48.2072C34.4718 48.1676 34.4567 48.1225 34.4541 48.0719H34.5709C34.5755 48.117 34.5959 48.1543 34.6322 48.1838C34.6689 48.213 34.7127 48.2276 34.7636 48.2276C34.8045 48.2276 34.8408 48.218 34.8726 48.1989C34.9047 48.1798 34.9299 48.1535 34.9481 48.1201C34.9665 48.0863 34.9758 48.0482 34.9758 48.0057C34.9758 47.9622 34.9662 47.9235 34.9471 47.8894C34.9283 47.855 34.9023 47.8279 34.8692 47.8081C34.8361 47.7884 34.7983 47.7783 34.7558 47.778C34.7253 47.7777 34.694 47.7824 34.6619 47.7921C34.6298 47.8015 34.6034 47.8137 34.5826 47.8286L34.4697 47.815L34.53 47.3244H35.0478V47.4315H34.6313L34.5962 47.7254H34.6021C34.6225 47.7092 34.6481 47.6957 34.679 47.685C34.7098 47.6743 34.7419 47.669 34.7753 47.669C34.8363 47.669 34.8906 47.6836 34.9383 47.7128C34.9863 47.7416 35.024 47.7812 35.0512 47.8315C35.0788 47.8818 35.0926 47.9392 35.0926 48.0038C35.0926 48.0674 35.0783 48.1241 35.0498 48.1741C35.0215 48.2237 34.9826 48.263 34.933 48.2918C34.8833 48.3204 34.8269 48.3347 34.7636 48.3347ZM34.1266 50.3347C34.0695 50.3347 34.0181 50.3233 33.9724 50.3006C33.9266 50.2779 33.89 50.2468 33.8624 50.2072C33.8348 50.1676 33.8197 50.1225 33.8171 50.0719H33.9339C33.9385 50.117 33.9589 50.1543 33.9952 50.1838C34.0319 50.213 34.0757 50.2276 34.1266 50.2276C34.1675 50.2276 34.2038 50.218 34.2356 50.1989C34.2678 50.1798 34.2929 50.1535 34.3111 50.1201C34.3296 50.0863 34.3388 50.0482 34.3388 50.0057C34.3388 49.9622 34.3292 49.9235 34.3101 49.8894C34.2913 49.855 34.2653 49.8279 34.2322 49.8081C34.1991 49.7884 34.1613 49.7783 34.1189 49.778C34.0884 49.7777 34.057 49.7824 34.0249 49.7921C33.9928 49.8015 33.9664 49.8137 33.9456 49.8286L33.8327 49.815L33.8931 49.3244H34.4108V49.4315H33.9943L33.9592 49.7254H33.9651C33.9855 49.7092 34.0111 49.6957 34.042 49.685C34.0728 49.6743 34.1049 49.669 34.1383 49.669C34.1993 49.669 34.2536 49.6836 34.3013 49.7128C34.3493 49.7416 34.387 49.7812 34.4142 49.8315C34.4418 49.8818 34.4556 49.9392 34.4556 50.0038C34.4556 50.0674 34.4413 50.1241 34.4128 50.1741C34.3845 50.2237 34.3456 50.263 34.296 50.2918C34.2463 50.3204 34.1899 50.3347 34.1266 50.3347ZM34.974 50.3347C34.9006 50.3347 34.8382 50.3147 34.7866 50.2748C34.735 50.2346 34.6956 50.1764 34.6684 50.1001C34.6411 50.0236 34.6275 49.9311 34.6275 49.8227C34.6275 49.715 34.6411 49.6231 34.6684 49.5468C34.6959 49.4703 34.7355 49.4119 34.7871 49.3716C34.839 49.3311 34.9013 49.3108 34.974 49.3108C35.0466 49.3108 35.1088 49.3311 35.1603 49.3716C35.2122 49.4119 35.2518 49.4703 35.2791 49.5468C35.3067 49.6231 35.3204 49.715 35.3204 49.8227C35.3204 49.9311 35.3068 50.0236 35.2796 50.1001C35.2523 50.1764 35.2129 50.2346 35.1613 50.2748C35.1097 50.3147 35.0473 50.3347 34.974 50.3347ZM34.974 50.2276C35.0466 50.2276 35.1031 50.1926 35.1433 50.1225C35.1835 50.0524 35.2036 49.9525 35.2036 49.8227C35.2036 49.7365 35.1944 49.663 35.1759 49.6023C35.1577 49.5416 35.1315 49.4954 35.0971 49.4636C35.063 49.4318 35.022 49.4159 34.974 49.4159C34.9019 49.4159 34.8457 49.4515 34.8051 49.5225C34.7646 49.5932 34.7443 49.6933 34.7443 49.8227C34.7443 49.909 34.7534 49.9824 34.7715 50.0427C34.7897 50.103 34.8158 50.1489 34.8499 50.1804C34.8843 50.2119 34.9256 50.2276 34.974 50.2276Z" fill="white"/>
<g clip-path="url(#clip1_41_14)">
<path d="M75.3748 38.6239L69.4469 32.696C68.7806 32.0297 67.7044 32.0297 67.0381 32.696C66.3719 33.3622 66.3719 34.4385 67.0381 35.1047L74.179 42.2455C74.8452 42.9118 75.9215 42.9118 76.5877 42.2455L94.6619 24.1714C95.3281 23.5051 95.3281 22.4289 94.6619 21.7626C93.9956 21.0964 92.9194 21.0964 92.2531 21.7626L75.3748 38.6239Z" fill="white"/>
</g>
</g>
<defs>
<clipPath id="clip0_41_14">
<rect width="90" height="90" fill="white"/>
</clipPath>
<clipPath id="clip1_41_14">
<rect width="41" height="41" fill="white" transform="translate(60 11)"/>
</clipPath>
</defs>
</svg>
