<svg width="1189" height="410" viewBox="0 0 1189 410" fill="none" xmlns="http://www.w3.org/2000/svg">
<path fill-rule="evenodd" clip-rule="evenodd" d="M788.584 167.324C788.584 184.048 787.977 187.948 785.895 184.584C785.533 184 781.871 182.501 777.757 181.252C767.259 178.067 750.477 178.557 742.931 182.267C735.72 185.813 728.064 193.627 724.306 201.277C721.374 207.244 721.129 208.661 721.129 219.601C721.129 230.12 721.445 232.132 723.936 237.436C727.941 245.963 732.681 250.841 740.887 254.879C747.898 258.331 748.4 258.413 764.651 258.752C776.266 258.995 781.038 258.752 780.537 257.944C780.134 257.291 776.356 256.788 771.845 256.788C754.042 256.788 746.365 253.089 740.818 241.84C737.372 234.848 737.318 234.506 737.318 219.518V204.299L741.096 196.904C743.795 191.621 746.209 188.576 749.557 186.232C754.046 183.089 754.696 182.955 765.207 183.004C775.405 183.05 776.588 183.286 782.109 186.376L788.045 189.699L788.33 224.321L788.615 258.944H796.154H803.694V208.973C803.694 181.489 803.386 156.751 803.008 154.001L802.322 149H795.453H788.584V167.324ZM1112.37 203.972V258.944H1119.93H1127.48V223.856V188.769L1134.38 185.546C1142.94 181.541 1151.22 180.1 1157.7 181.485C1163.29 182.68 1166.98 185.566 1171.35 192.153L1174.43 196.803L1174.76 227.873L1175.09 258.944H1182.05H1189V230.572C1189 197.752 1188.48 194.998 1180.8 187.327C1173.98 180.514 1168.17 178.848 1153.03 179.366C1142.7 179.72 1140.06 180.2 1134.64 182.714C1131.15 184.328 1128.12 185.648 1127.89 185.648C1127.67 185.648 1127.48 177.402 1127.48 167.324V149H1119.93H1112.37V203.972ZM499.108 160.919C498.093 161.511 496.76 163.799 496.146 166.007C494.649 171.389 494.604 258.944 496.098 258.944C496.798 258.944 497.177 244.616 497.177 218.116C497.177 183.719 497.424 177.084 498.746 175.988C500.366 174.645 502.189 178.051 533.474 240.89C538.722 251.429 543.095 258.944 543.981 258.944C544.815 258.944 546.356 257.126 547.403 254.902C556.44 235.707 585.183 178.247 586.48 176.781C587.385 175.757 588.546 175.18 589.061 175.498C589.575 175.814 589.996 194.719 589.996 217.509V258.944H598.09H606.185V213.834C606.185 183.678 605.79 167.59 604.992 165.306C602.957 159.476 596.885 157.987 591.713 162.05C589.783 163.567 582.697 176.678 570.401 201.489C560.271 221.932 551.576 238.25 551.08 237.752C550.584 237.255 542.046 220.841 532.107 201.277C522.167 181.714 512.708 164.373 511.086 162.743C507.974 159.616 502.721 158.816 499.108 160.919ZM817.725 163.551C817.725 164.93 820.663 165.168 837.692 165.168H857.659V212.056V258.944H865.753H873.848V212.056V165.168H893.815C910.844 165.168 913.782 164.93 913.782 163.551C913.782 162.138 907.726 161.935 865.753 161.935C823.781 161.935 817.725 162.138 817.725 163.551ZM1043.54 181.305C1032.41 185.304 1024.45 192.322 1018.84 203.067C1016.16 208.22 1015.84 209.95 1015.81 219.601C1015.78 229.03 1016.13 231.123 1018.59 236.309C1022.93 245.447 1029.29 251.838 1038.61 256.437C1045.72 259.948 1047.93 260.503 1056.38 260.906C1061.69 261.159 1069.05 260.774 1072.74 260.05C1082.56 258.123 1096.91 250.686 1094.82 248.604C1094.44 248.225 1091.71 249.404 1088.74 251.225C1077.13 258.363 1059.05 260.618 1050.31 256.019C1035.21 248.068 1028.48 229.345 1033.02 207.947C1036.05 193.645 1042.38 185.4 1053.04 181.865C1058.13 180.176 1059.77 180.113 1067.75 181.3C1073.57 182.165 1079.43 183.925 1084.39 186.297C1093.15 190.493 1092.94 190.439 1092.94 188.49C1092.94 186.782 1082.73 181.969 1075.67 180.348C1067.43 178.455 1050.03 178.974 1043.54 181.305ZM633.69 184.601C632.241 187.401 632.045 192.622 632.313 221.138C632.606 252.095 632.771 254.567 634.683 256.677C636.694 258.893 637.53 258.944 672.189 258.944C695.102 258.944 707.638 258.563 707.638 257.866C707.638 257.175 697.728 256.788 680.067 256.788H652.496L649.847 254.142C647.261 251.561 647.198 251.094 647.198 234.74V217.985H672.021C687.534 217.985 696.845 217.588 696.845 216.927C696.845 216.275 687.43 215.758 672.291 215.58L647.737 215.29L647.437 201.783C647.002 182.235 644.939 183.492 677.46 183.492C693.981 183.492 703.321 183.103 703.321 182.414C703.321 181.719 691.278 181.337 669.351 181.337H635.381L633.69 184.601ZM930.912 183.117C929.748 184.517 929.361 191.719 929.103 216.801C928.923 234.348 929.063 250.265 929.415 252.173C930.696 259.109 929.736 258.944 968.902 258.944C991.876 258.944 1004.44 258.563 1004.44 257.866C1004.44 257.175 994.532 256.788 976.871 256.788H949.3L946.651 254.142C944.065 251.561 944.002 251.094 944.002 234.74V217.985H968.286C983.755 217.985 992.57 217.593 992.57 216.907C992.57 216.22 983.755 215.829 968.286 215.829H944.002V201.816C944.002 182.127 941.79 183.492 973.682 183.492C989.871 183.492 999.045 183.102 999.045 182.414C999.045 181.719 987.217 181.337 965.719 181.337C936.052 181.337 932.231 181.532 930.912 183.117Z" fill="white"/>
<path fill-rule="evenodd" clip-rule="evenodd" d="M200.021 0.532309C193.184 1.77766 186.67 4.35975 181.553 7.85156C176.653 11.1955 168.896 17.9697 169.968 17.9697C170.29 17.9697 169.76 18.8113 168.79 19.839C164.941 23.9174 160.849 34.8281 160.046 43.1534C159.531 48.4929 160.481 55.1326 161.695 54.679C162.079 54.5361 163.986 57.7138 165.931 61.7407C172.571 75.4811 183.215 82.7979 201.415 86.1318C211.148 87.9147 225.831 85.1365 235.375 79.7073C243.042 75.3448 252.067 64.4283 253.366 57.944C253.71 56.2292 254.376 55.3552 255.34 55.3552C259.521 55.3552 258.212 37.3728 253.254 26.693C248.494 16.4419 236.609 6.27306 224.686 2.25038C218.635 0.208302 206.453 -0.639934 200.021 0.532309ZM211.729 3.38358C212.01 4.50016 211.995 5.80865 211.696 6.29134C211.357 6.83966 212.187 7.17613 213.905 7.18693C217.768 7.21185 226.962 10.604 231.305 13.6064C237.419 17.8351 243.131 24.13 246.071 29.8832C254.68 46.7242 246.292 69.7802 228.72 77.5788C226.204 78.6954 222.835 80.2 221.233 80.9228C217.144 82.7671 201.16 82.7945 197.109 80.9626C195.508 80.239 192.214 78.8358 189.789 77.8455C184.966 75.8741 183.806 75.0341 178.226 69.4787C173.963 65.2333 171.959 61.6892 169.636 54.286C167.58 47.7377 167.575 43.1028 169.618 35.9688C171.709 28.6678 174.722 23.595 179.991 18.5081C184.957 13.7128 195.298 8.40487 201.272 7.58405C204.531 7.13708 205.428 6.68679 205.428 5.49793C205.428 2.55943 206.417 1.35396 208.828 1.35396C210.67 1.35396 211.337 1.82003 211.729 3.38358ZM161.339 10.908C161.339 11.7637 161.883 12.1708 162.794 11.9964C164.548 11.6591 164.437 10.1844 162.63 9.8089C161.877 9.65188 161.339 10.1096 161.339 10.908ZM257.01 11.311C256.031 11.9216 255.985 12.2996 256.789 13.103C258 14.3126 258.928 13.6339 258.533 11.8261C258.332 10.9072 257.895 10.7593 257.01 11.311ZM153.02 13.4004C153.02 14.0858 153.394 14.6466 153.852 14.6466C154.309 14.6466 154.684 14.0858 154.684 13.4004C154.684 12.715 154.309 12.1542 153.852 12.1542C153.394 12.1542 153.02 12.715 153.02 13.4004ZM265.323 14.2312C265.323 14.9166 265.697 15.4774 266.154 15.4774C266.612 15.4774 266.986 14.9166 266.986 14.2312C266.986 13.5458 266.612 12.985 266.154 12.985C265.697 12.985 265.323 13.5458 265.323 14.2312ZM143.869 15.8928C143.869 16.5782 144.431 17.1389 145.117 17.1389C145.803 17.1389 146.365 16.5782 146.365 15.8928C146.365 15.2074 145.803 14.6466 145.117 14.6466C144.431 14.6466 143.869 15.2074 143.869 15.8928ZM273.641 17.1389C273.641 18.2098 274.062 18.7989 274.681 18.5928C275.253 18.4026 275.721 17.7479 275.721 17.1389C275.721 16.53 275.253 15.8753 274.681 15.6851C274.062 15.479 273.641 16.0681 273.641 17.1389ZM202.139 17.6358C195.097 19.5258 190.784 22.0439 185.989 27.0644C180.237 33.0859 177.832 39.2404 177.824 47.9554C177.815 56.0514 180.018 61.4042 185.442 66.4712C196.627 76.92 213.394 78.9729 225.969 71.4327C232.257 67.6625 234.655 65.3131 237.564 60.0716C239.698 56.2243 239.95 54.9772 239.95 48.2503C239.95 41.2534 239.737 40.298 236.873 34.5116C232.852 26.3856 227.054 21.5056 217.79 18.4474C210.443 16.0224 208.52 15.9227 202.139 17.6358ZM135.551 18.3361C135.551 20.0426 137.273 20.8808 138.084 19.5698C138.46 18.9617 138.584 18.1666 138.358 17.8019C137.659 16.672 135.551 17.0733 135.551 18.3361ZM281.96 20.0467C281.96 20.7321 282.521 21.2929 283.208 21.2929C283.894 21.2929 284.456 20.7321 284.456 20.0467C284.456 19.3613 283.894 18.8005 283.208 18.8005C282.521 18.8005 281.96 19.3613 281.96 20.0467ZM127.809 20.993C127.145 21.6568 127.896 22.9545 128.945 22.9545C129.376 22.9545 129.728 22.3937 129.728 21.7083C129.728 20.4239 128.746 20.0575 127.809 20.993ZM290.002 21.847C288.988 22.8589 289.428 24.616 290.695 24.616C291.388 24.616 291.942 23.8775 291.942 22.9545C291.942 21.2995 291.056 20.7936 290.002 21.847ZM119.745 25.4468C119.745 25.9038 120.119 26.2776 120.577 26.2776C121.034 26.2776 121.409 25.9038 121.409 25.4468C121.409 24.9899 121.034 24.616 120.577 24.616C120.119 24.616 119.745 24.9899 119.745 25.4468ZM297.765 26.693C297.765 27.3784 298.14 27.9392 298.597 27.9392C299.055 27.9392 299.429 27.3784 299.429 26.693C299.429 26.0076 299.055 25.4468 298.597 25.4468C298.14 25.4468 297.765 26.0076 297.765 26.693ZM111.586 29.6631C111.75 30.1541 112.24 30.5562 112.674 30.5562C113.108 30.5562 113.598 30.1541 113.762 29.6631C113.926 29.1721 113.437 28.77 112.674 28.77C111.911 28.77 111.422 29.1721 111.586 29.6631ZM217.906 37.8804V46.1601L226.848 46.396L235.791 46.632V53.6937V60.7554L226.848 60.9913L217.906 61.2273V65.7683V70.3094H208.755H199.605V65.7692V61.2289L191.078 60.9921L182.551 60.7554L182.311 53.486L182.07 46.2166H190.333C197.099 46.2166 198.686 45.979 199.1 44.9022C199.378 44.1795 199.605 40.4409 199.605 36.5944V29.6008H208.755H217.906V37.8804ZM305.252 30.4316C305.252 30.8885 305.627 31.2624 306.084 31.2624C306.542 31.2624 306.916 30.8885 306.916 30.4316C306.916 29.9746 306.542 29.6008 306.084 29.6008C305.627 29.6008 305.252 29.9746 305.252 30.4316ZM327.713 31.1145C320.781 33.4241 317.665 35.2867 313.708 39.4838C309.18 44.2858 307.252 47.9994 305.584 55.1301C302.328 69.05 307.26 82.6076 318.068 89.4533C335.47 100.475 360.627 91.669 367.238 72.2427C371.41 59.9869 367.489 46.2066 357.304 37.3321C349.636 30.6492 337.047 28.0048 327.713 31.1145ZM103.94 33.3651C103.94 34.0364 104.501 34.5855 105.187 34.5855C105.874 34.5855 106.435 34.2515 106.435 33.8436C106.435 33.4357 105.874 32.8866 105.187 32.6232C104.427 32.3324 103.94 32.6224 103.94 33.3651ZM96.4527 37.4933C96.4527 38.1787 96.827 38.7395 97.2845 38.7395C97.7421 38.7395 98.1164 38.1787 98.1164 37.4933C98.1164 36.8079 97.7421 36.2471 97.2845 36.2471C96.827 36.2471 96.4527 36.8079 96.4527 37.4933ZM143.869 39.4988C135.022 42.9923 125.382 47.4818 122.241 49.5721C121.097 50.3331 116.792 53.157 112.674 55.8479C108.556 58.538 104.107 61.6775 102.787 62.824C97.861 67.1009 95.5384 69.7254 96.1931 70.2729C96.9701 70.9217 106.504 74.6545 112.778 76.7663C116.427 77.9942 117.958 79.2753 123.384 85.635C126.873 89.7233 129.728 93.4801 129.728 93.9836C129.728 94.4871 130.996 95.3577 132.547 95.9177C135.789 97.0883 137.605 100.501 137.039 104.358C136.704 106.642 136.791 106.752 138.048 105.616C139.851 103.986 140.821 104.046 142.493 105.891C144.403 107.999 144.221 109.088 141.681 110.75C139.552 112.143 139.446 112.126 137.684 110.078C135.957 108.075 135.75 108.034 133.272 109.205C129.873 110.813 126.042 109.358 124.174 105.751C123.07 103.619 123.024 102.751 123.889 100.365C125.021 97.237 124.265 96.1137 120.993 96.0639C119.641 96.0431 119.559 95.8936 120.554 95.2647C121.58 94.6167 121.513 94.3932 120.138 93.8847C119.235 93.5508 118.237 92.887 117.918 92.4101C117.6 91.9332 117.05 91.8327 116.695 92.1866C116.34 92.5414 116.442 93.0913 116.92 93.4087C117.399 93.7269 118.494 95.1949 119.354 96.672L120.917 99.3563L118.46 101.923C117.108 103.333 114.776 105.246 113.278 106.172C111.78 107.098 110.037 108.847 109.406 110.06C107.825 113.093 105.189 116.003 104.02 116.003C103.486 116.003 102.324 117.692 101.438 119.755C100.552 121.82 98.8584 124.476 97.6747 125.657C96.4918 126.84 94.6558 129.766 93.5952 132.162C92.5346 134.557 91.0796 136.741 90.3617 137.016C89.6446 137.291 88.7911 138.938 88.465 140.675C87.8777 143.809 86.6341 146.901 84.3531 150.896C83.7009 152.038 83.1619 153.569 83.1552 154.296C83.1486 155.025 82.4431 157.651 81.588 160.134C80.7328 162.615 79.1822 168.749 78.1423 173.763C75.6775 185.65 75.4903 185.954 73.1752 181.84C71.7195 179.252 70.2046 178.017 66.4213 176.331C63.7393 175.136 60.624 174.158 59.4985 174.158C58.3738 174.158 57.2358 173.807 56.9696 173.377C55.7467 171.401 62.2886 148.231 65.2708 143.979C65.9496 143.01 66.5053 141.584 66.5053 140.809C66.5053 139.16 68.8063 134.66 70.831 132.348C71.6088 131.459 72.484 129.647 72.7759 128.32C73.0679 126.993 74.5087 124.334 75.9778 122.409C77.4469 120.485 79.5665 117.246 80.6879 115.211C81.8092 113.176 84.131 110.135 85.8463 108.454C87.5625 106.773 88.9658 104.815 88.9658 104.103C88.9658 103.391 90.8375 101.233 93.1252 99.3065C95.4128 97.3799 97.2845 95.1334 97.2845 94.3134C97.2845 93.4943 97.8136 92.5247 98.4608 92.1592C99.108 91.7936 101.269 89.9642 103.264 88.0941C107.276 84.3323 108.552 84.3116 111.418 87.9637C112.404 89.2207 113.652 90.2367 114.191 90.2218C114.729 90.2077 114.421 89.6037 113.506 88.8801C112.353 87.9695 112.162 87.4461 112.882 87.1761C114.659 86.5107 114.035 85.4688 111.218 84.4004C109.732 83.8363 106.643 82.6591 104.355 81.7851C97.3261 79.0984 90.3018 76.969 88.4476 76.9624C85.3222 76.9508 73.7018 90.221 62.6246 106.449C57.1908 114.409 49.1417 129.875 45.9772 138.434C44.3725 142.775 41.6806 152.495 39.9944 160.035L36.9298 173.743H25.722H14.5134L14.2613 170.282C14.0508 167.4 14.2937 166.731 15.7146 166.281C18.0105 165.553 18.8699 161.952 17.1562 160.242C15.5208 158.608 10.8814 158.521 9.87734 160.104C8.55716 162.187 9.05296 164.68 11.1859 166.681C12.447 167.864 13.2656 169.55 13.2656 170.965C13.2656 172.914 12.6125 173.631 9.31417 175.308C4.21812 177.898 1.66345 180.688 0.737575 184.67C-0.315573 189.203 -0.214084 216.3 0.870676 220.201C1.88556 223.853 5.71632 228.159 7.9499 228.159C9.19022 228.159 9.0879 227.806 7.28357 225.875C3.44781 221.767 3.2831 220.816 3.2831 202.745C3.2831 185.57 3.28809 185.524 5.40604 182.751C9.37572 177.553 9.80164 177.481 36.8083 177.481C51.9842 177.481 62.232 177.818 63.8109 178.367C65.2101 178.855 67.3255 180.651 68.5101 182.358L70.6647 185.463V203.371V221.279L67.1708 225.243C64.0588 228.774 63.8991 229.145 65.715 228.631C69.6065 227.53 71.4583 226.226 73.686 223.016C74.918 221.241 76.244 220.106 76.6325 220.494C77.4328 221.294 80.6471 232.44 80.6471 234.416C80.6471 235.914 65.9005 243.114 62.8309 243.114C60.8111 243.114 59.6207 241.148 58.5535 236.052C57.3422 230.265 58.12 230.652 47.6759 230.652C38.9554 230.652 38.1477 230.78 38.5403 232.106C38.7782 232.905 39.7498 236.737 40.7015 240.621C41.6532 244.505 43.2112 249.825 44.1654 252.443C45.1187 255.062 45.6736 257.791 45.3982 258.508C45.1229 259.225 42.7404 260.769 40.1034 261.939C35.5572 263.957 35.1887 263.998 32.9551 262.729C29.7865 260.929 26.9232 261.044 24.9118 263.052C22.8396 265.122 22.7872 267.363 24.7695 269.155C27.132 271.291 31.1458 270.916 32.9901 268.388C34.3019 266.59 44.5189 261.391 46.7425 261.391C47.1086 261.391 47.8606 262.419 48.4129 263.676C48.9661 264.932 49.6125 266.147 49.8512 266.376C50.0892 266.604 51.4967 269.221 52.9791 272.191C58.3638 282.979 68.1549 298.27 70.6647 299.812C71.5456 300.354 74.2958 299.474 80.0232 296.818C84.4837 294.75 88.134 292.745 88.134 292.364C88.134 291.982 86.6416 289.624 84.8173 287.123C75.1925 273.93 69.6481 264.501 70.386 262.581C70.6239 261.961 71.6263 261.201 72.6129 260.892C73.6003 260.583 77.481 258.854 81.2361 257.052C84.992 255.248 88.4617 254.018 88.9467 254.318C89.4325 254.617 90.8068 256.798 92.0005 259.165C96.7713 268.618 107.707 283.305 116.396 291.926C132.716 308.119 148.23 318.179 165.498 323.765C169.387 325.023 172.66 326.551 172.77 327.161C172.881 327.771 171.505 329.168 169.712 330.267C165.468 332.868 162.926 336.386 162.386 340.406C161.882 344.157 160.829 344.412 154.192 342.402C151.946 341.722 150.045 341.161 149.968 341.156C149.89 341.151 150.216 342.548 150.691 344.262C151.498 347.168 151.161 355.302 150.023 360.385C149.548 362.5 149.781 362.672 155.641 364.539L161.755 366.486L162.317 372.167C163.083 379.909 166.773 385.469 174.233 390.124C178.427 392.741 185.725 393.488 206.621 393.441C237.52 393.372 242.285 392.497 248.923 385.665C253.43 381.027 254.51 378.541 255.175 371.27L255.756 364.922L265.4 361.5C282.502 355.43 302.072 344.619 312.108 335.697C313.362 334.582 314.672 333.643 315.019 333.61C315.88 333.527 320.53 327.881 320.095 327.445C319.902 327.254 315.226 326.578 309.702 325.942L299.657 324.788L296.568 321.372C294.867 319.493 292.39 316.538 291.061 314.805C289.732 313.072 287.811 310.618 286.792 309.354L284.94 307.054L287.05 304.946L289.161 302.838L294.919 309.323C298.086 312.89 301.118 316.275 301.657 316.846C302.197 317.418 303.604 317.885 304.783 317.885C306.805 317.885 323.884 320.073 337.695 322.102C344.928 323.165 355.13 325.826 356.247 326.941C357.972 328.664 355.652 329.516 349.237 329.516C342.706 329.516 342.586 329.553 343.167 331.385C344.867 336.749 350.151 340.489 355.966 340.444C359.577 340.415 360.719 339.966 363.994 337.286C368.265 333.791 369.306 331.76 369.306 326.928C369.306 323.081 367.826 319.87 364.882 317.329C361.424 314.345 360.097 313.923 349.732 312.509C344.255 311.762 334.429 309.982 327.894 308.552L316.013 305.954L312.06 309.842C309.886 311.981 307.503 313.731 306.767 313.731C305.563 313.731 296.207 303.612 294.432 300.391C293.891 299.409 295.57 297.2 301.378 291.252C305.592 286.937 309.778 282.441 310.681 281.259C320.51 268.406 323.228 264.27 327.136 256.208C329.631 251.063 332.14 245.357 332.712 243.529C333.285 241.701 334.024 239.832 334.356 239.375C334.688 238.918 335.403 236.675 335.945 234.39C336.487 232.106 337.506 228.205 338.212 225.723L339.494 221.208L341.645 223.954C344.125 227.118 348.038 228.99 352.171 228.99C354.698 228.99 355.086 228.708 355.318 226.705C355.565 224.557 355.853 224.406 360.156 224.177C364.168 223.963 364.858 223.663 365.763 221.745C366.329 220.542 366.654 219.419 366.485 219.249C365.827 218.591 354.399 217.993 352.344 218.508C351.15 218.807 350.173 219.593 350.173 220.254C350.173 220.914 349.476 221.827 348.624 222.282C347.415 222.929 346.685 222.695 345.297 221.22C343.59 219.405 343.519 218.596 343.545 201.106C343.572 181.881 343.61 181.682 347.655 178.897C349.491 177.633 352.666 177.481 377.282 177.481C413.612 177.481 411.055 175.647 410.934 201.62C410.889 211.183 410.655 219.52 410.415 220.147C409.92 221.436 405.932 223.474 405.247 222.79C405 222.544 404.736 221.502 404.658 220.475C404.521 218.647 404.302 218.607 394.817 218.672C389.483 218.708 384.933 218.923 384.708 219.148C384.482 219.373 384.762 220.544 385.328 221.751C386.316 223.853 386.672 223.954 393.847 224.182C400.893 224.407 401.349 224.53 401.6 226.29C402.159 230.224 409.825 227.832 412.698 222.826C414.536 219.623 414.658 218.496 414.897 202.405C415.142 186 415.08 185.237 413.233 181.639C411.71 178.673 410.333 177.408 406.533 175.485C402.172 173.278 401.749 172.823 401.749 170.335C401.749 168.62 402.323 167.203 403.294 166.521C405.855 164.72 406.236 162.024 404.215 160.005C402.891 158.682 401.874 158.371 400.23 158.783C396.222 159.787 395.437 163.963 398.838 166.189C401.306 167.804 401.818 172.805 399.601 173.654C397.433 174.485 390.116 174.224 388.296 173.25C387.067 172.594 386.346 172.594 385.688 173.25C384.659 174.278 380.411 174.485 379.852 173.535C379.65 173.193 379.251 170.951 378.967 168.555C378.484 164.492 373.836 145.173 373.185 144.523C373.023 144.362 371.149 144.999 369.019 145.94C365.683 147.414 365.147 147.987 365.147 150.083C365.147 153.317 361.832 155.037 355.877 154.895C352.649 154.816 350.101 155.393 346.633 156.986C343.999 158.196 340.389 159.418 338.609 159.702C335.514 160.197 335.348 160.107 334.809 157.655C334.06 154.252 334.56 153.643 339.232 152.257C346.129 150.211 351.665 147.488 352.07 145.941C352.29 145.102 353.875 143.992 355.685 143.411C357.457 142.841 361.599 141.259 364.887 139.895C369.806 137.856 370.741 137.175 370.161 136.056C369.772 135.308 368.804 132.826 368.01 130.542C365.308 122.768 354.308 102.595 351.528 100.314C350.938 99.8307 349.221 100.008 346.911 100.791C344.888 101.477 340.098 102.283 336.268 102.582L329.303 103.126L332.017 106.864C333.509 108.92 334.973 110.79 335.27 111.018C337.667 112.862 351.216 138.029 350.826 139.914C350.57 141.157 334.935 148.35 332.418 148.384C331.514 148.395 330.688 147.635 330.405 146.534C329.727 143.897 322.163 129.609 319.077 125.142C315.149 119.452 306.721 109.426 301.995 104.819C299.669 102.551 297.765 100.185 297.765 99.5607C297.765 98.9368 299.263 96.9005 301.093 95.0354C302.923 93.1711 304.42 91.4181 304.42 91.1398C304.42 90.8615 303.472 89.2406 302.313 87.5367C298.631 82.1249 296.696 72.2086 297.138 61.0237C297.35 55.6876 297.296 50.9595 297.02 50.5176C296.129 49.0894 282.614 42.7995 274.202 39.8976C269.706 38.3465 265.963 37.0779 265.883 37.0779C265.803 37.0779 265.771 41.6015 265.812 47.1304L265.884 57.1838L273.298 60.3034C280.318 63.2569 283.862 65.2117 291.823 70.5238L295.257 72.8143L291.645 77.7159C289.657 80.4118 286.887 84.0033 285.488 85.6981L282.945 88.7795L278.345 86.6062C275.814 85.4107 273.551 84.4329 273.313 84.4329C273.076 84.4329 271.088 83.3786 268.895 82.09C266.701 80.8015 263.784 79.3443 262.411 78.8516C261.038 78.3589 259.31 77.7101 258.569 77.4094C257.546 76.9931 256.882 77.7226 255.81 80.4392C253.161 87.152 247.625 95.2996 242.676 99.7734C237.212 104.711 237.206 104.683 244.11 106.867C249.366 108.53 253.676 110.947 253.676 112.23C253.676 113.011 252.342 113.58 249.725 113.918C235.734 115.718 224.095 120.603 214.369 128.755L208.571 133.615L205.127 130.326C196.055 121.663 179.821 114.341 169.683 114.341C168.014 114.341 165.937 113.822 165.068 113.188C163.567 112.091 163.631 111.948 166.365 110.282C167.947 109.318 171.113 107.924 173.401 107.184C179.976 105.056 180.433 104.184 176.687 100.911C174.943 99.3871 172.208 96.7318 170.607 95.0096C167.505 91.6723 161.339 80.9901 161.339 78.9546C161.339 76.3468 158.487 76.9441 149.891 81.3506C144.977 83.8696 139.77 86.612 138.318 87.4453C135.756 88.915 135.627 88.9133 133.951 87.3979C133 86.5397 132.223 85.4796 132.223 85.0426C132.223 84.6057 130.781 82.5137 129.017 80.3944C125.727 76.439 123.904 73.498 123.904 72.143C123.904 70.3202 143.547 59.5092 146.859 59.5092C147.459 59.5092 148.811 59.1179 149.861 58.6394C151.708 57.7986 151.773 57.4098 151.809 47.0083C151.829 41.0898 151.829 36.277 151.809 36.3127C151.789 36.3493 148.216 37.7832 143.869 39.4988ZM349.614 38.6713C354.002 40.794 358.775 45.4032 361.659 50.304C363.71 53.7875 363.898 54.846 363.888 62.8323C363.874 73.0278 363.113 74.9544 356.518 81.5035C351.607 86.3794 347.809 88.3824 341.539 89.401C324.479 92.1741 308.304 73.8469 312.639 56.6529C314.37 49.7898 320.317 42.2279 326.623 38.8724C332.235 35.8865 343.651 35.7868 349.614 38.6713ZM82.4772 43.0596C80.1546 45.3791 81.6712 49.5397 84.8397 49.5397C87.4901 49.5397 88.6214 47.437 87.7771 44.0798C87.2197 41.8624 84.2483 41.2908 82.4772 43.0596ZM335.898 47.049L335.616 52.0354L338.265 52.0337C339.723 52.0329 341.848 52.3868 342.988 52.8197C344.973 53.5732 345.101 53.427 345.954 49.4558C346.957 44.7868 347.072 43.2207 346.362 43.9302C346.096 44.1961 344.611 43.8845 343.062 43.2382C341.512 42.5918 339.33 42.0626 338.212 42.0626C336.314 42.0626 336.16 42.3916 335.898 47.049ZM60.2663 48.7222C54.9772 49.843 52.2337 52.3278 50.3271 57.7263C49.541 59.9503 49.3455 61.7831 49.7997 62.6695C50.1965 63.4446 50.9277 65.1079 51.4251 66.3649C52.3535 68.7135 56.2666 71.6138 59.7181 72.5127C64.7343 73.8187 72.3143 68.932 73.8416 63.4072C76.0751 55.3303 68.3787 47.0041 60.2663 48.7222ZM318.624 58.3644C318.091 60.4762 317.766 62.284 317.901 62.3829C318.036 62.4817 319.745 63.1838 321.698 63.9431C326.764 65.9129 328.545 65.7592 328.545 63.3516C328.545 62.2666 328.768 60.2635 329.04 58.901C329.515 56.535 329.367 56.3813 325.761 55.474C320.002 54.026 319.685 54.1539 318.624 58.3644ZM350.728 63.3865C350.423 63.6905 350.162 64.7191 350.147 65.6711C350.133 66.6232 349.571 68.1278 348.899 69.0142C347.108 71.3795 347.311 71.6811 351.374 72.7029C356.5 73.9923 356.452 74.0106 357.529 70.4208C358.915 65.7999 358.811 65.4801 355.479 64.0893C352.1 62.6795 351.521 62.5939 350.728 63.3865ZM329.793 76.9533C329.013 79.2986 328.507 81.3415 328.668 81.4935C328.829 81.6456 330.889 82.3384 333.246 83.033L337.532 84.2949L338.493 80.833C339.021 78.9289 339.629 76.9657 339.845 76.4714C340.061 75.9762 338.69 75.1081 336.8 74.5423C334.909 73.9765 332.879 73.3285 332.287 73.1017C331.584 72.8325 330.719 74.1685 329.793 76.9533ZM175.155 86.3021C180.745 95.9044 192.476 102.464 205.572 103.312C217.404 104.078 226.043 101.73 234.303 95.5039C237.909 92.7864 242.862 87.0797 242.862 85.6433C242.862 85.4364 241.053 86.5638 238.842 88.1506C223.929 98.8504 202.792 100.499 186.215 92.2547C183.197 90.7535 179.587 88.5669 178.192 87.3946C175.456 85.0958 174.187 84.6389 175.155 86.3021ZM38.2724 92.646C36.043 96.8058 41.857 101.004 45.2518 97.6856C46.5712 96.3962 46.7234 95.6693 46.0679 93.7975C45.414 91.9274 44.6895 91.4464 42.2122 91.2403C39.853 91.0426 38.9612 91.3616 38.2724 92.646ZM370.177 92.2796C368.633 94.1356 369.487 97.1231 371.953 98.5006C373.99 99.6388 374.333 99.6122 375.905 98.1924C377.817 96.4635 378.155 93.6023 376.627 92.0761C375.251 90.702 371.386 90.8241 370.177 92.2796ZM166.177 95.523C166.377 97.1963 165.942 97.9373 164.329 98.6717C161.727 99.8556 159.675 98.4956 159.675 95.5879C159.675 91.4489 165.68 91.389 166.177 95.523ZM256.453 93.1196C258.248 94.4788 258.023 96.7526 255.964 98.0478C252.855 100.003 249.533 95.1683 252.497 93.0033C254.33 91.6649 254.539 91.6715 256.453 93.1196ZM288.723 95.2331C289.165 95.2331 290.444 96.2226 291.566 97.4314C294.371 100.455 294.23 103.877 291.175 106.928C288.637 109.462 286.748 109.87 283.413 108.604C281.834 108.004 281.223 108.183 280.408 109.486C279.174 111.46 275.487 111.289 274.176 109.198C273.103 107.486 275.525 104.372 277.93 104.372C279.046 104.372 279.468 103.75 279.477 102.087C279.502 97.3965 283.161 93.8108 286.811 94.9016C287.42 95.0844 288.28 95.2331 288.723 95.2331ZM154.674 98.1301C155.274 98.852 155.478 100.254 155.164 101.504C154.706 103.325 154.229 103.604 151.952 103.384C149.887 103.185 149.214 102.689 149.004 101.211C148.485 97.5535 152.419 95.4167 154.674 98.1301ZM268.146 98.764C269.403 100.769 267.865 103.051 265.026 103.389C262.473 103.693 261.541 102.137 262.35 98.9177C262.779 97.2129 263.318 96.8415 265.06 97.05C266.256 97.1929 267.644 97.9639 268.146 98.764ZM285.01 101.403C284.511 102.7 286.353 104.692 287.236 103.811C287.537 103.51 287.783 102.579 287.783 101.741C287.783 99.9453 285.669 99.6886 285.01 101.403ZM129.054 102.503C129.208 103.303 129.886 103.956 130.559 103.956C131.233 103.956 131.91 103.303 132.065 102.503C132.261 101.482 131.812 101.049 130.559 101.049C129.307 101.049 128.857 101.482 129.054 102.503ZM30.9012 106.2C30.3522 106.748 29.903 108.168 29.903 109.357C29.903 112.102 31.313 113.51 34.0623 113.51C36.8117 113.51 38.2217 112.102 38.2217 109.357C38.2217 106.611 36.8117 105.203 34.0623 105.203C32.8728 105.203 31.4503 105.651 30.9012 106.2ZM377.654 106.809C376.318 109.303 376.631 111.641 378.473 112.93C382.26 115.579 386.796 112.031 385.618 107.341C385.154 105.496 384.63 105.203 381.798 105.203C379.404 105.203 378.282 105.638 377.654 106.809ZM28.2392 118.842C28.2392 119.564 28.8315 120.157 29.5561 120.157C31.0252 120.157 30.7698 118.368 29.2275 117.855C28.6835 117.674 28.2392 118.118 28.2392 118.842ZM125.403 120.228C125.702 122.804 123.775 124.646 121.525 123.933C117.744 122.734 118.969 117.366 122.92 117.822C124.618 118.018 125.212 118.594 125.403 120.228ZM297.762 118.906C298.594 119.908 298.529 120.552 297.429 122.23C295.997 124.413 295.415 124.633 293.258 123.806C291.951 123.305 291.407 119.308 292.497 118.219C293.498 117.219 296.708 117.639 297.762 118.906ZM385.24 118.859C385.399 119.621 385.902 120.225 386.36 120.201C387.594 120.135 387.368 118.277 386.072 117.846C385.372 117.613 385.061 117.993 385.24 118.859ZM167.726 120.215C175.029 121.213 187.289 125.747 192.95 129.545C197.494 132.593 205.337 139.071 207.215 141.328C208.557 142.941 208.675 142.892 213.038 138.93C215.486 136.705 218.051 134.263 218.738 133.501C219.424 132.74 220.173 132.125 220.401 132.135C220.63 132.145 222.524 130.98 224.611 129.547C235.245 122.24 253.641 118.13 267.45 119.975C281.573 121.862 294.487 130.507 302.252 143.273C306.042 149.504 309.907 160.476 311.184 168.628C312.35 176.076 311.615 193.737 309.882 199.913C308.171 206.007 308.23 207.39 310.194 207.39C311.083 207.39 311.99 207.682 312.212 208.04C312.845 209.063 310.971 216.875 309.931 217.554C309.417 217.89 294.725 218.17 277.282 218.177L245.569 218.19L244.204 225.875C243.005 232.623 240.686 243.434 237.577 256.758C236.481 261.458 234.832 262.605 234.119 259.165C233.852 257.876 232.744 253.644 231.657 249.76C230.569 245.876 229.051 239.707 228.283 236.052C227.516 232.396 226.556 228.471 226.151 227.329C225.545 225.618 222.426 212.728 220.775 205.105C219.919 201.155 218.887 203.563 217.924 211.751C217.374 216.434 216.195 226.062 215.302 233.144C214.41 240.227 212.754 253.437 211.622 262.501C210.49 271.565 209.231 280.457 208.825 282.262C208.124 285.378 208.177 285.516 209.877 285.002C213.231 283.986 234.588 269.356 244.953 260.975C256.021 252.026 268.696 238.432 277.321 226.26L281.317 220.622L294.596 220.75C305.375 220.854 307.963 221.106 308.34 222.089C309.937 226.245 300.051 245.043 290.279 256.432C271.275 278.577 248.809 296.336 220.566 311.536L208.784 317.877L201.906 314.439C186.849 306.911 171.262 296.664 153.076 282.333C145.369 276.261 133.77 264.682 127.506 256.812C126.056 254.99 123.533 251.816 121.9 249.76C120.266 247.704 118.926 245.726 118.921 245.363C118.917 245.002 118.258 243.993 117.457 243.122C115.458 240.948 109.107 226.651 108.781 223.59L108.515 221.098L122.409 220.87C136.122 220.646 136.316 220.667 137.299 222.532C137.847 223.571 138.521 224.608 138.797 224.836C139.073 225.065 140.417 226.934 141.784 228.99C144.373 232.885 145.206 233.91 151.923 241.452C159.553 250.02 175.376 264.714 176.971 264.714C177.305 264.714 178.684 265.739 180.037 266.993C182.57 269.337 183.944 270.324 194.613 277.462C198.045 279.757 201.04 281.874 201.268 282.166C201.497 282.458 202.34 282.938 203.14 283.234C204.811 283.85 204.918 283.164 203.808 278.934C201.963 271.9 199.296 260.195 197.066 249.344C195.751 242.947 193.654 232.748 192.406 226.678C190.868 219.207 189.904 216.054 189.422 216.916C188.795 218.033 183.753 218.19 148.432 218.19C102.995 218.19 107.136 218.859 106.007 211.336C105.458 207.677 105.543 207.39 107.189 207.39C108.596 207.39 108.877 207.004 108.548 205.52C104.336 186.516 104.56 171.744 109.303 155.775C113.096 143.003 123.859 129.915 134.751 124.832C145.741 119.703 154.749 118.442 167.726 120.215ZM7.98733 122.507C4.03595 126.867 10.3648 132.588 15.1373 128.97C17.1537 127.441 17.0572 122.956 14.9842 121.847C12.5285 120.535 9.51714 120.819 7.98733 122.507ZM400.757 122.441C398.548 125.01 398.458 126.547 400.408 128.377C402.753 130.577 405.425 130.61 407.572 128.465C409.754 126.286 409.682 123.886 407.387 122.281C404.952 120.577 402.305 120.642 400.757 122.441ZM22.5351 125.65C20.1668 127.307 20.0578 132.189 22.3612 133.42C26.385 135.57 30.1667 133.326 29.7399 129.039C29.4022 125.643 25.3019 123.715 22.5351 125.65ZM390.398 124.921C387.905 125.358 385.758 127.977 386.085 130.182C386.236 131.202 387.39 132.801 388.647 133.736L390.935 135.436L393.223 133.729C397.568 130.49 395.495 124.027 390.398 124.921ZM115.641 128.494C116.672 129.045 117.249 130.232 117.249 131.801C117.249 133.722 116.8 134.362 115.159 134.773C111.236 135.756 108.869 131.202 112.05 128.79C113.836 127.436 113.685 127.449 115.641 128.494ZM306.508 130.138C307.292 131.406 306.154 134.185 304.484 135.077C303.376 135.668 302.54 135.447 301.213 134.213C299.001 132.155 298.986 131.4 301.112 129.276C302.427 127.963 303.144 127.783 304.393 128.45C305.272 128.92 306.224 129.679 306.508 130.138ZM18.2568 142.588C17.2743 143.195 17.2336 143.56 18.0555 144.381C18.8591 145.183 19.3108 145.191 20.0869 144.416C21.4362 143.068 19.9247 141.559 18.2568 142.588ZM394.603 142.9C393.898 144.735 394.836 145.671 396.107 144.402C396.857 143.652 396.86 143.188 396.12 142.449C395.38 141.71 395.019 141.817 394.603 142.9ZM161.432 143.902C146.611 147.882 135.78 159.248 131.718 175.083C130.148 181.2 130.462 199.997 132.211 204.69L133.218 207.39H155.165H177.113L177.504 205.52C179.758 194.746 182.464 180.717 184.188 170.866C186.324 158.663 187.825 155.014 189.456 158.068C189.911 158.921 191.266 164.105 192.467 169.589C196.331 187.229 202.838 214.219 203.351 214.73C203.519 214.899 203.862 213.783 204.113 212.251C204.364 210.719 205.16 205.915 205.881 201.574C206.603 197.233 208.135 187.326 209.284 179.558C210.433 171.79 211.861 163.099 212.459 160.242C213.542 155.055 213.203 153.947 211.251 156.296C209.748 158.105 209.293 157.955 202.62 153.458C188.547 143.974 173.854 140.565 161.432 143.902ZM238.287 143.073C237.372 143.296 233.348 144.663 229.344 146.113C223.899 148.085 222.065 149.123 222.065 150.231C222.065 152.347 226.006 172.802 227.555 178.727C228.271 181.469 229.377 186.516 230.01 189.943C231.539 198.199 234.602 212.709 234.874 212.981C235.151 213.258 238.949 197.777 241.238 187.035C244.14 173.422 245.057 173.941 249.475 191.699C251.225 198.729 252.926 205.137 253.255 205.936C253.795 207.246 255.363 207.39 269.099 207.39C286.327 207.39 284.529 208.22 286.073 199.552C287.338 192.453 287.154 181.726 285.641 174.331C283.139 162.101 274.673 151.964 262.072 146.111C256.659 143.595 254.941 143.213 247.93 142.959C243.542 142.8 239.202 142.851 238.287 143.073ZM105.225 145.458C106.348 146.58 107.267 148.466 107.267 149.65C107.267 152.356 103.823 155.881 101.178 155.881C100.075 155.881 98.1863 155.106 96.9809 154.158C94.0569 151.862 93.868 146.65 96.6382 144.712C99.3684 142.802 102.87 143.106 105.225 145.458ZM319.848 145.458C323.246 148.851 322.232 153.358 317.717 154.93C313.316 156.462 309.412 153.793 309.412 149.251C309.412 146.821 313.051 143.419 315.651 143.419C316.836 143.419 318.724 144.337 319.848 145.458ZM15.5066 151.427C14.7305 152.203 15.668 153.388 17.0581 153.388C17.7177 153.388 18.2568 152.828 18.2568 152.142C18.2568 150.891 16.5007 150.434 15.5066 151.427ZM396.378 151.669C396.114 152.095 396.28 152.677 396.745 152.965C397.737 153.577 399.254 152.799 399.254 151.678C399.254 150.667 397.002 150.66 396.378 151.669ZM358.358 163.458C358.889 165.758 359.324 169.105 359.324 170.898V174.158H354.803C349.183 174.158 346.353 175.194 342.907 178.514C341.427 179.939 339.948 180.838 339.62 180.511C339.292 180.184 338.773 177.966 338.465 175.584C338.157 173.2 337.64 170.119 337.318 168.735L336.729 166.219L346.155 162.446C351.339 160.371 355.988 158.809 356.486 158.976C356.984 159.142 357.827 161.16 358.358 163.458ZM98.8268 164.464C100.942 166.159 101.52 169.11 100.224 171.612C97.2571 177.342 88.9525 175.659 88.9783 169.334C88.9941 165.628 89.6222 164.523 92.3166 163.46C94.5003 162.598 96.9743 162.98 98.8268 164.464ZM326.709 164.911C329.567 168.508 328.146 173.601 323.994 174.642C318.714 175.965 314.54 171.103 316.766 166.223C318.439 162.556 324.231 161.792 326.709 164.911ZM11.5186 185.689C9.90147 186.997 9.53378 188.211 9.25344 193.154C9.07043 196.401 9.15944 200.013 9.45309 201.18C9.97717 203.266 10.1011 203.298 16.8251 203.061L23.6639 202.82L26.1903 194.987C29.7424 183.971 31.6233 184.069 32.7987 195.331C33.3536 200.642 33.6614 201.355 36.4373 203.758L39.4695 206.384L39.8854 200.929C40.1142 197.928 40.689 195.346 41.1624 195.191C41.6365 195.035 43.455 196.782 45.2036 199.072L48.383 203.236H56.1968H64.0097V194.975C64.0097 187.38 63.8608 186.61 62.1604 185.421C60.594 184.324 56.7416 184.128 36.8807 184.128C15.1897 184.128 13.3063 184.244 11.5186 185.689ZM352.877 184.704L350.173 185.064V197.472C350.173 204.944 350.494 209.882 350.981 209.882C351.425 209.882 352.967 206.05 354.407 201.366C355.847 196.683 357.371 192.48 357.793 192.027C358.921 190.817 360.126 193.142 360.156 196.589C360.2 201.636 361.569 202.258 362.221 197.527C362.89 192.664 364.688 191.779 365.587 195.87C365.902 197.302 366.837 199.982 367.663 201.827L369.166 205.18L370.064 201.847C370.886 198.8 372.634 190.274 372.634 189.312C372.634 187.931 375.138 191.314 375.174 192.744C375.199 193.717 375.897 197.129 376.725 200.328L378.231 206.143L378.859 202.82C380.943 191.801 381.517 189.617 382.403 189.322C383.477 188.964 383.739 189.88 385.15 198.877C385.67 202.191 386.382 204.725 386.732 204.508C387.083 204.292 387.838 201.911 388.41 199.217C388.983 196.524 389.743 193.848 390.1 193.271C391.159 191.56 392.557 193.13 393.124 196.665C393.771 200.71 394.206 200.406 394.944 195.392C395.256 193.275 395.883 191.527 396.338 191.509C396.793 191.492 398.463 195.618 400.05 200.679C401.636 205.74 403.229 209.882 403.589 209.882C404.155 209.882 404.599 185.069 404.037 184.894C403.113 184.604 354.966 184.427 352.877 184.704ZM87.164 193.762C90.7527 196.272 87.5034 201.469 83.3507 199.86C80.3194 198.686 81.1787 192.435 84.3714 192.435C84.8647 192.435 86.1217 193.032 87.164 193.762ZM334.51 193.81C336.376 195.496 336.438 196.895 334.725 198.607C331.298 202.029 326.299 198.454 328.921 194.457C330.467 192.099 332.373 191.879 334.51 193.81ZM27.8067 205.313C26.7119 207.934 25.8019 208.194 17.682 208.208C13.1216 208.215 9.81246 208.583 9.48137 209.117C9.17608 209.61 9.18439 212.42 9.49967 215.362C10.3474 223.26 9.92559 223.142 37.4139 223.203C65.0204 223.263 64.0097 223.597 64.0097 214.432V208.22H54.8591H45.7085V213.156C45.7085 215.871 45.3176 218.333 44.8409 218.628C44.3634 218.923 41.6773 216.864 38.8722 214.054C34.7045 209.879 33.6389 209.182 33.0441 210.244C31.6582 212.717 30.0976 211.617 29.2916 207.597C28.6444 204.371 28.374 203.953 27.8067 205.313ZM101.287 228.192C105.289 231.915 102.467 238.96 96.9734 238.96C93.6118 238.96 90.6262 236.051 90.642 232.792C90.657 229.842 91.226 228.802 93.5411 227.491C96.1074 226.037 99.2802 226.325 101.287 228.192ZM325.007 228.714C325.58 229.498 326.049 231.519 326.049 233.207C326.049 236.638 323.572 238.96 319.913 238.96C317.957 238.96 313.571 234.865 313.571 233.039C313.571 231.635 315.987 227.498 317.089 227.015C318.977 226.189 323.937 227.253 325.007 228.714ZM354.611 241.244C350.59 253.545 345.986 263.651 339.441 274.539C336.879 278.8 333.962 283.66 332.958 285.339C331.954 287.018 330.396 289.326 329.496 290.469C328.595 291.611 326.688 294.018 325.257 295.817C323.227 298.369 322.905 299.228 323.794 299.725C325.173 300.496 339.923 303.761 342.025 303.761C344.928 303.761 356.665 285.613 364.204 269.467C369.907 257.252 373.155 248.682 375.138 240.621C376.094 236.737 377.069 232.905 377.306 232.106C377.7 230.779 376.879 230.652 367.905 230.652H358.072L354.611 241.244ZM14.9293 237.713C14.9293 238.405 15.6688 238.96 16.593 238.96C17.5172 238.96 18.2568 238.405 18.2568 237.713C18.2568 237.021 17.5172 236.467 16.593 236.467C15.6688 236.467 14.9293 237.021 14.9293 237.713ZM395.507 237.304C394.875 238.325 397.164 239.32 398.395 238.561C398.883 238.26 399.066 237.666 398.802 237.241C398.167 236.215 396.157 236.253 395.507 237.304ZM84.8273 243.583C86.1799 247.136 85.7956 248.708 83.3507 249.617C78.5766 251.392 68.4352 256.133 64.7684 258.302C60.7379 260.686 55.8965 261.264 54.1936 259.563C53.6446 259.015 53.1954 257.152 53.1954 255.423C53.1954 252.489 53.4699 252.142 57.3273 250.189C59.5991 249.04 62.7103 248.098 64.2401 248.098C66.9936 248.098 74.5803 245.482 79.3993 242.871C82.869 240.991 83.8914 241.125 84.8273 243.583ZM17.1479 245.329C16.0931 246.382 16.5997 247.267 18.2568 247.267C19.181 247.267 19.9205 246.713 19.9205 246.021C19.9205 244.757 18.1611 244.317 17.1479 245.329ZM393.986 245.329C393.028 246.285 393.379 247.267 394.678 247.267C395.365 247.267 395.926 246.707 395.926 246.021C395.926 244.724 394.942 244.373 393.986 245.329ZM104.762 246.841C105.363 247.563 105.566 248.966 105.251 250.217C104.815 251.956 104.29 252.308 102.455 252.097C100.827 251.91 100.12 251.302 99.9241 249.922C99.4216 246.381 102.664 244.316 104.762 246.841ZM317.225 247.475C318.478 249.472 316.95 251.761 314.14 252.097C312.395 252.305 311.859 251.934 311.427 250.217C310.407 246.156 315.026 243.972 317.225 247.475ZM20.3365 253.914C20.0045 254.45 20.1069 255.263 20.5644 255.72C21.1192 256.274 21.5976 256.226 22.0002 255.575C22.3321 255.039 22.2298 254.226 21.7723 253.769C21.2174 253.215 20.7391 253.263 20.3365 253.914ZM391.351 253.914C391.019 254.45 391.121 255.263 391.579 255.72C392.134 256.274 392.612 256.226 393.015 255.575C393.347 255.039 393.244 254.226 392.787 253.769C392.232 253.215 391.754 253.263 391.351 253.914ZM307.588 264.146C307.386 266.229 306.9 266.852 305.299 267.078C304.049 267.254 302.847 266.793 302.179 265.88C300.727 263.896 300.799 263.346 302.776 261.372C305.232 258.918 307.944 260.482 307.588 264.146ZM116.079 262.648C116.379 263.845 116.166 265.262 115.577 265.971C114.103 267.744 110.812 267.503 109.763 265.545C108.416 263.032 110.073 260.56 113.103 260.56C115.027 260.56 115.667 261.009 116.079 262.648ZM383.24 262.288C381.546 263.273 381.248 268 382.783 269.533C384.561 271.309 389.093 270.742 390.522 268.565C393.466 264.077 388.108 259.457 383.24 262.288ZM12.1301 265.605C8.62704 268.357 9.32914 272.42 13.4877 273.463C16.5132 274.222 19.9205 272.029 19.9205 269.325C19.9205 267.531 16.5747 263.883 14.9293 263.883C14.5949 263.883 13.3354 264.658 12.1301 265.605ZM396.401 266.019C392.576 269.841 397.741 275.263 402.95 272.892C405.663 271.658 405.999 266.926 403.468 265.574C401.12 264.319 397.901 264.522 396.401 266.019ZM129.349 275.892C133.457 279.994 131.068 286.394 125.37 286.555C121.259 286.672 118.913 284.482 118.913 280.527C118.913 274.404 125.105 271.653 129.349 275.892ZM296.44 275.722C299.449 278.407 299.908 281.328 297.752 284.066C295.374 287.085 289.413 287.317 287.415 284.468C282.893 278.022 290.623 270.531 296.44 275.722ZM29.626 277.73C28.5712 278.783 29.0778 279.668 30.7348 279.668C31.6591 279.668 32.3986 279.114 32.3986 278.422C32.3986 277.158 30.6392 276.718 29.626 277.73ZM382.357 277.713C381.271 278.796 381.789 279.668 383.517 279.668C384.486 279.668 385.105 279.233 384.921 278.682C384.516 277.467 383.127 276.942 382.357 277.713ZM33.3777 286.774C33.7537 288.578 35.2303 288.689 35.568 286.938C35.7427 286.028 35.3351 285.484 34.4783 285.484C33.6788 285.484 33.2205 286.021 33.3777 286.774ZM378.041 286.315C377.758 286.771 377.706 287.145 377.924 287.145C378.143 287.145 378.913 287.372 379.637 287.65C380.5 287.98 380.953 287.695 380.953 286.819C380.953 285.353 378.86 284.991 378.041 286.315ZM38.2217 292.736C36.4781 293.399 35.7535 294.689 35.7386 297.156C35.7227 299.87 37.1461 301.269 39.9229 301.269C44.0764 301.269 46.4048 296.267 43.5698 293.435C42.2421 292.109 40.4761 291.878 38.2217 292.736ZM371.594 293.027C369.521 294.234 369.626 299.275 371.747 300.409C374.229 301.736 376.626 301.436 378.499 299.565C382.379 295.69 376.532 290.155 371.594 293.027ZM268.775 297.181C271.171 298.461 272.987 303.185 272.042 305.669C269.499 312.346 260.751 311.939 259.024 305.064C257.547 299.189 263.512 294.368 268.775 297.181ZM154.155 298.837C158.702 302.409 155.788 311.238 150.064 311.238C147.497 311.238 143.037 306.938 143.037 304.463C143.037 302.378 145.192 298.219 146.555 297.671C148.912 296.724 152.086 297.21 154.155 298.837ZM86.0543 302.375C72.6054 308.925 67.8263 311.031 62.9782 312.541C57.2782 314.317 52.915 317.702 50.6756 322.086C48.6791 325.995 48.6134 328.384 50.4011 332.088C53.613 338.743 59.1491 341.832 65.8423 340.703C72.1995 339.63 80.0939 329.516 74.5745 329.516C73.5221 329.516 72.261 329.915 71.771 330.405C70.5765 331.598 64.8416 330.483 64.2501 328.942C63.9931 328.274 64.5712 327.202 65.5645 326.508C66.7898 325.65 67.3372 324.385 67.3372 322.406C67.3372 319.084 67.5867 318.965 69.8328 321.208C71.2869 322.66 72.6054 322.869 80.3019 322.869H89.1072L94.8788 327.992L100.649 333.114L102.918 331.06C107.115 327.261 111.057 324.718 114.609 323.519L118.139 322.327L111.247 316.163C107.457 312.774 101.922 307.464 98.9483 304.364L93.5411 298.729L86.0543 302.375ZM43.7744 306.8C43.1447 307.429 44.7194 309.577 45.81 309.577C46.2118 309.577 46.5404 308.829 46.5404 307.915C46.5404 306.318 44.9133 305.663 43.7744 306.8ZM368.846 307.157C367.989 308.542 369.916 310.131 371.064 308.984C372.024 308.026 371.423 306.253 370.138 306.253C369.735 306.253 369.153 306.66 368.846 307.157ZM286.233 318.393L292.323 326.379L290.059 328.155C285.089 332.054 259.751 343.639 256.19 343.639C255.723 343.639 255.34 342.635 255.34 341.409C255.34 337.182 252.175 332.25 247.695 329.497L243.491 326.914L251.287 324.153C258.94 321.442 272.036 315.038 276.137 312.001C277.281 311.153 278.65 310.448 279.18 310.434C279.711 310.419 282.884 314.001 286.233 318.393ZM247.51 331.431C249.513 333.758 249.517 333.801 249.517 354.097C249.517 377.073 249.31 378.108 243.754 382.858C239.445 386.541 235.142 387.671 225.427 387.671H217.879L216.491 384.763L215.102 381.855H208.989C202.885 381.855 202.874 381.859 201.158 384.763L199.44 387.671L191.828 387.666C179.153 387.658 173.018 384.824 169.502 377.352C167.667 373.454 167.578 372.379 167.578 354.422C167.578 333.631 167.935 331.869 172.569 329.818C174.54 328.946 182.456 328.755 210.283 328.907L245.503 329.1L247.51 331.431ZM116.833 330.802C115.003 331.525 112.945 332.325 112.258 332.58C110.195 333.346 105.481 339.278 104.293 342.603C101.511 350.387 103.701 360.681 109.169 365.535C116.675 372.197 124.127 373.481 132.039 369.477C137.787 366.567 139.874 364.443 142.33 358.999C145.897 351.094 143.972 341.325 137.595 334.956C133.033 330.4 122.955 328.383 116.833 330.802ZM131.615 338.509C133.136 340.027 133.502 342.154 132.964 346.339C132.862 347.138 132.466 347.793 132.084 347.793C131.703 347.793 131.391 348.376 131.391 349.088C131.391 349.8 131.076 350.189 130.691 349.951C130.306 349.714 128.735 350.813 127.2 352.395C125.665 353.976 124.092 355.27 123.701 355.27C122.265 355.27 114.804 347.036 114.253 344.843C113.514 341.904 114.739 338.503 116.927 337.413C117.877 336.94 121.196 336.617 124.3 336.696C128.717 336.808 130.307 337.202 131.615 338.509ZM191.494 336.784C200.988 336.917 216.523 336.917 226.017 336.784C235.511 336.65 227.743 336.542 208.755 336.542C189.768 336.542 182.001 336.65 191.494 336.784ZM174.97 344.831C174.273 346.644 174.969 375.476 175.737 376.663C176.261 377.47 183.589 377.658 208.596 377.509L240.782 377.316L208.755 376.885L176.728 376.455L176.475 374.279C176.282 372.615 176.658 371.989 178.074 371.619C180.579 370.965 236.48 370.883 239.059 371.529C240.185 371.812 241.271 372.662 241.472 373.419C241.672 374.175 241.88 367.784 241.934 359.216L242.03 343.639H208.729C180.569 343.639 175.357 343.823 174.97 344.831ZM83.1427 345.075C79.0998 346.612 80.341 352.778 84.6925 352.778C86.0593 352.778 88.134 350.273 88.134 348.624C88.134 347.097 86.0443 344.409 84.9554 344.535C84.6443 344.571 83.829 344.815 83.1427 345.075ZM330.683 345.775C329.965 346.494 329.377 347.775 329.377 348.624C329.377 350.393 331.485 352.778 333.05 352.778C334.483 352.778 336.863 350.052 336.863 348.41C336.863 346.787 334.662 344.47 333.12 344.47C332.499 344.47 331.403 345.057 330.683 345.775ZM212.915 347.793C216.316 351.19 214.034 356.932 209.283 356.932C205.941 356.932 204.021 355.542 203.314 352.611C202.895 350.873 203.249 349.893 204.895 348.25C207.441 345.707 210.644 345.525 212.915 347.793ZM113.57 348.694C114.434 349.647 116.949 351.753 119.161 353.375C122.905 356.12 123.331 356.244 125.344 355.174C126.532 354.541 129.276 352.435 131.442 350.493C133.607 348.551 135.792 346.962 136.297 346.962C136.866 346.962 137.214 348.891 137.214 352.035C137.214 356.534 136.963 357.31 134.993 358.889C131.712 361.52 123.955 366.901 123.444 366.901C123.201 366.901 120.92 365.312 118.377 363.37C115.833 361.429 112.855 359.279 111.758 358.593C110.002 357.495 109.765 356.731 109.764 352.155C109.763 346.466 110.743 345.575 113.57 348.694ZM321.448 355.312C320.658 356.589 321.74 357.413 322.808 356.347C323.405 355.75 323.42 355.286 322.851 354.935C322.386 354.648 321.754 354.817 321.448 355.312ZM240.782 361.244C240.782 363.927 240.682 364.004 236.623 364.459L232.464 364.924L236.623 365.289C240.407 365.622 240.782 365.842 240.782 367.732V369.809L208.491 370.026L176.2 370.244L176.464 367.95L176.728 365.655L204.596 365.223L232.464 364.79L204.388 364.6L176.312 364.409V361.523V358.637L188.582 358.408C195.331 358.282 209.837 358.249 220.817 358.336L240.782 358.495V361.244ZM312.899 361.979C313.063 362.47 313.553 362.872 313.987 362.872C314.421 362.872 314.911 362.47 315.075 361.979C315.239 361.488 314.75 361.086 313.987 361.086C313.224 361.086 312.735 361.488 312.899 361.979ZM304.42 367.732C304.42 368.189 304.795 368.563 305.252 368.563C305.71 368.563 306.084 368.189 306.084 367.732C306.084 367.275 305.71 366.901 305.252 366.901C304.795 366.901 304.42 367.275 304.42 367.732ZM295.825 371.609C294.867 372.565 295.218 373.547 296.518 373.547C297.204 373.547 297.765 372.987 297.765 372.301C297.765 371.004 296.781 370.653 295.825 371.609ZM286.651 375.786C285.657 376.778 286.114 378.532 287.367 378.532C288.053 378.532 288.615 377.994 288.615 377.335C288.615 375.947 287.428 375.01 286.651 375.786ZM130.95 379.404C130.159 380.682 131.242 381.506 132.31 380.44C132.907 379.843 132.921 379.379 132.353 379.028C131.887 378.741 131.256 378.91 130.95 379.404ZM276.969 381.163C276.969 381.544 277.53 381.855 278.216 381.855C278.903 381.855 279.464 381.544 279.464 381.163C279.464 380.782 278.903 380.47 278.216 380.47C277.53 380.47 276.969 380.782 276.969 381.163ZM140.542 383.981C140.542 384.693 140.916 385.046 141.374 384.763C141.831 384.481 142.206 383.898 142.206 383.468C142.206 383.038 141.831 382.686 141.374 382.686C140.916 382.686 140.542 383.269 140.542 383.981ZM267.438 384.29C266.87 385.208 268.182 386.2 268.95 385.433C269.741 384.643 269.593 383.517 268.699 383.517C268.268 383.517 267.701 383.865 267.438 384.29ZM150.144 385.952C149.576 386.87 150.888 387.862 151.656 387.094C152.447 386.304 152.299 385.178 151.405 385.178C150.974 385.178 150.407 385.527 150.144 385.952ZM257.836 387.255C257.836 388.017 258.238 388.506 258.73 388.342C259.222 388.178 259.624 387.689 259.624 387.255C259.624 386.822 259.222 386.332 258.73 386.169C258.238 386.005 257.836 386.494 257.836 387.255ZM174.233 404.4C165.082 404.78 154.226 405.396 150.108 405.768L142.622 406.444L157.595 407.035C165.831 407.361 180.056 408.051 189.206 408.569C201.589 409.271 210.205 409.273 222.897 408.576C232.276 408.06 247.25 407.364 256.172 407.028C271.604 406.447 272.029 406.388 264.907 405.81C238.916 403.699 204.129 403.158 174.233 404.4Z" fill="white"/>
</svg>
